<?xml version="1.0" encoding="UTF-8"?>
<svg xmlns="http://www.w3.org/2000/svg" xmlns:xlink="http://www.w3.org/1999/xlink" width="395.018" height="540.624" viewBox="0 0 395.018 540.624"><rect data-bg="white" x="0" y="0" width="100%" height="100%" fill="#ffffff"/>
<defs>
<g>
<g id="glyph-0-0">
<path d="M 2.640625 -5.71875 L 3.65625 -5.71875 L 3.65625 -6.15625 C 3.34375 -6.125 2.375 -6.125 2 -6.125 C 1.625 -6.125 0.640625 -6.125 0.328125 -6.15625 L 0.328125 -5.71875 L 1.34375 -5.71875 L 1.34375 -0.4375 L 0.328125 -0.4375 L 0.328125 0 C 0.640625 -0.03125 1.609375 -0.03125 1.984375 -0.03125 C 2.375 -0.03125 3.34375 -0.03125 3.65625 0 L 3.65625 -0.4375 L 2.640625 -0.4375 Z M 2.640625 -5.71875 "/>
</g>
<g id="glyph-0-1">
<path d="M 5.046875 -2.734375 C 5.046875 -3.796875 4.390625 -4.03125 3.609375 -4.03125 C 2.515625 -4.03125 2.078125 -3.234375 2.015625 -3.09375 L 2 -3.09375 L 2 -4.03125 L 0.453125 -3.96875 L 0.453125 -3.53125 C 0.984375 -3.53125 1.0625 -3.53125 1.0625 -3.171875 L 1.0625 -0.4375 L 0.453125 -0.4375 L 0.453125 0 C 1.109375 -0.03125 1.21875 -0.03125 1.578125 -0.03125 C 1.953125 -0.03125 2.03125 -0.03125 2.71875 0 L 2.71875 -0.4375 L 2.109375 -0.4375 L 2.109375 -2.28125 C 2.109375 -3.28125 2.9375 -3.671875 3.46875 -3.671875 C 3.8125 -3.671875 3.984375 -3.484375 3.984375 -2.8125 L 3.984375 -0.4375 L 3.375 -0.4375 L 3.375 0 C 4.046875 -0.03125 4.15625 -0.03125 4.515625 -0.03125 C 4.875 -0.03125 4.96875 -0.03125 5.65625 0 L 5.65625 -0.4375 L 5.046875 -0.4375 Z M 5.046875 -2.734375 "/>
</g>
<g id="glyph-0-2">
<path d="M 2.078125 -6.21875 L 0.46875 -6.15625 L 0.46875 -5.71875 C 1 -5.71875 1.078125 -5.71875 1.078125 -5.359375 L 1.078125 -0.4375 L 0.46875 -0.4375 L 0.46875 0 C 1.078125 -0.03125 1.1875 -0.03125 1.5625 -0.03125 C 1.96875 -0.03125 2.203125 -0.015625 2.6875 0 L 2.6875 -0.4375 L 2.078125 -0.4375 Z M 2.078125 -6.21875 "/>
</g>
<g id="glyph-0-3">
<path d="M 4.265625 -1.921875 C 4.453125 -1.921875 4.5625 -1.921875 4.5625 -2.171875 C 4.5625 -2.375 4.546875 -3.171875 3.96875 -3.65625 C 3.5625 -3.984375 3.015625 -4.0625 2.578125 -4.0625 C 1.046875 -4.0625 0.296875 -3.09375 0.296875 -2.015625 C 0.296875 -0.84375 1.1875 0.046875 2.703125 0.046875 C 4.1875 0.046875 4.5625 -0.890625 4.5625 -1.046875 C 4.5625 -1.21875 4.390625 -1.21875 4.328125 -1.21875 C 4.171875 -1.21875 4.15625 -1.171875 4.09375 -1.046875 C 3.890625 -0.578125 3.34375 -0.328125 2.78125 -0.328125 C 1.5 -0.328125 1.484375 -1.484375 1.484375 -1.921875 Z M 1.484375 -2.25 C 1.5 -2.65625 1.546875 -3.703125 2.578125 -3.703125 C 3.625 -3.703125 3.671875 -2.609375 3.6875 -2.25 Z M 1.484375 -2.25 "/>
</g>
<g id="glyph-0-4">
<path d="M 2 -3.546875 L 3.359375 -3.546875 L 3.359375 -3.984375 L 2 -3.984375 L 2 -5.6875 L 1.546875 -5.6875 C 1.53125 -4.859375 1.109375 -3.921875 0.203125 -3.90625 L 0.203125 -3.546875 L 0.953125 -3.546875 L 0.953125 -1.109375 C 0.953125 -0.078125 1.84375 0.046875 2.390625 0.046875 C 3.09375 0.046875 3.53125 -0.453125 3.53125 -1.109375 L 3.53125 -1.578125 L 3.0625 -1.578125 L 3.0625 -1.125 C 3.0625 -0.5 2.75 -0.328125 2.515625 -0.328125 C 2 -0.328125 2 -0.875 2 -1.078125 Z M 2 -3.546875 "/>
</g>
<g id="glyph-0-5">
<path d="M 7.375 -3.046875 C 7.375 -4.921875 6.109375 -6.265625 3.984375 -6.265625 C 1.84375 -6.265625 0.59375 -4.90625 0.59375 -3.046875 C 0.59375 -1.234375 1.84375 0.109375 3.984375 0.109375 C 6.125 0.109375 7.375 -1.21875 7.375 -3.046875 Z M 3.984375 -0.3125 C 3.421875 -0.3125 2.796875 -0.546875 2.40625 -1.1875 C 2.03125 -1.796875 2 -2.578125 2 -3.171875 C 2 -3.96875 2.078125 -4.640625 2.515625 -5.21875 C 2.75 -5.515625 3.265625 -5.875 3.984375 -5.875 C 4.578125 -5.875 5.140625 -5.625 5.484375 -5.15625 C 5.921875 -4.578125 5.96875 -3.796875 5.96875 -3.171875 C 5.96875 -2.375 5.890625 -1.796875 5.609375 -1.25 C 5.28125 -0.640625 4.640625 -0.3125 3.984375 -0.3125 Z M 3.984375 -0.3125 "/>
</g>
<g id="glyph-0-6">
<path d="M 3.375 -3.96875 L 3.375 -3.53125 C 3.921875 -3.53125 3.984375 -3.53125 3.984375 -3.171875 L 3.984375 -1.46875 C 3.984375 -0.75 3.53125 -0.3125 2.828125 -0.3125 C 2.140625 -0.3125 2.109375 -0.5 2.109375 -0.984375 L 2.109375 -4.03125 L 0.453125 -3.96875 L 0.453125 -3.53125 C 0.984375 -3.53125 1.0625 -3.53125 1.0625 -3.171875 L 1.0625 -1.109375 C 1.0625 -0.125 1.828125 0.046875 2.703125 0.046875 C 2.984375 0.046875 3.59375 0.046875 4.046875 -0.625 L 4.046875 0.046875 L 5.65625 0 L 5.65625 -0.4375 C 5.109375 -0.4375 5.046875 -0.4375 5.046875 -0.796875 L 5.046875 -4.03125 Z M 3.375 -3.96875 "/>
</g>
<g id="glyph-0-7">
<path d="M 2.75 -6.03125 C 2.65625 -6.15625 2.640625 -6.15625 2.453125 -6.15625 L 0.375 -6.15625 L 0.375 -5.71875 L 1.34375 -5.71875 L 1.34375 -0.703125 C 1.34375 -0.5 1.34375 -0.5 1.078125 -0.46875 C 0.875 -0.4375 0.859375 -0.4375 0.609375 -0.4375 L 0.375 -0.4375 L 0.375 0 C 0.953125 -0.03125 1.203125 -0.03125 1.59375 -0.03125 C 1.984375 -0.03125 2.234375 -0.03125 2.828125 0 L 2.828125 -0.4375 L 2.59375 -0.4375 C 2.34375 -0.4375 2.328125 -0.4375 2.109375 -0.46875 C 1.859375 -0.5 1.859375 -0.5 1.859375 -0.703125 L 1.859375 -5.3125 L 6.40625 -0.109375 C 6.515625 0 6.546875 0 6.671875 0 C 6.9375 0 6.9375 -0.09375 6.9375 -0.296875 L 6.9375 -5.453125 C 6.9375 -5.65625 6.9375 -5.65625 7.1875 -5.6875 C 7.40625 -5.71875 7.421875 -5.71875 7.671875 -5.71875 L 7.90625 -5.71875 L 7.90625 -6.15625 C 7.3125 -6.125 7.0625 -6.125 6.6875 -6.125 C 6.28125 -6.125 6.046875 -6.125 5.453125 -6.15625 L 5.453125 -5.71875 L 5.6875 -5.71875 C 5.921875 -5.71875 5.953125 -5.71875 6.15625 -5.6875 C 6.40625 -5.65625 6.421875 -5.65625 6.421875 -5.453125 L 6.421875 -1.84375 Z M 2.75 -6.03125 "/>
</g>
<g id="glyph-0-8">
<path d="M 5 -1.953125 C 5 -3.125 4.171875 -4.0625 2.65625 -4.0625 C 1.078125 -4.0625 0.296875 -3.078125 0.296875 -1.953125 C 0.296875 -0.84375 1.109375 0.046875 2.640625 0.046875 C 4.25 0.046875 5 -0.890625 5 -1.953125 Z M 2.65625 -0.328125 C 1.484375 -0.328125 1.484375 -1.28125 1.484375 -2.046875 C 1.484375 -2.8125 1.484375 -3.703125 2.640625 -3.703125 C 3.8125 -3.703125 3.8125 -2.8125 3.8125 -2.046875 C 3.8125 -1.28125 3.8125 -0.328125 2.65625 -0.328125 Z M 2.65625 -0.328125 "/>
</g>
<g id="glyph-0-9">
<path d="M 2.9375 -1.546875 L 2.9375 -2.4375 L 0.109375 -2.4375 L 0.109375 -1.546875 Z M 2.9375 -1.546875 "/>
</g>
<g id="glyph-0-10">
<path d="M 3.5625 -3.796875 C 3.5625 -3.96875 3.5625 -4.0625 3.375 -4.0625 C 3.296875 -4.0625 3.140625 -3.984375 2.984375 -3.90625 C 2.703125 -4.03125 2.34375 -4.0625 2.046875 -4.0625 C 1.78125 -4.0625 0.34375 -4.0625 0.34375 -2.875 C 0.34375 -1.9375 1.53125 -1.734375 1.84375 -1.6875 C 2.578125 -1.5625 3.171875 -1.46875 3.171875 -0.953125 C 3.171875 -0.3125 2.328125 -0.3125 2.125 -0.3125 C 1.671875 -0.3125 1.078125 -0.421875 0.828125 -1.25 C 0.78125 -1.40625 0.765625 -1.421875 0.578125 -1.421875 C 0.34375 -1.421875 0.34375 -1.375 0.34375 -1.15625 L 0.34375 -0.203125 C 0.34375 -0.046875 0.34375 0.046875 0.53125 0.046875 C 0.59375 0.046875 0.609375 0.046875 0.8125 -0.078125 L 1.046875 -0.21875 C 1.46875 0.046875 1.953125 0.046875 2.125 0.046875 C 2.390625 0.046875 3.828125 0.046875 3.828125 -1.25 C 3.828125 -1.71875 3.5625 -2 3.40625 -2.140625 C 3 -2.46875 2.71875 -2.515625 2.015625 -2.640625 C 1.578125 -2.703125 1.015625 -2.796875 1.015625 -3.203125 C 1.015625 -3.734375 1.84375 -3.734375 2.046875 -3.734375 C 3.046875 -3.734375 3.078125 -3.203125 3.109375 -2.96875 C 3.109375 -2.84375 3.234375 -2.84375 3.328125 -2.84375 C 3.546875 -2.84375 3.5625 -2.890625 3.5625 -3.109375 Z M 3.5625 -3.796875 "/>
</g>
<g id="glyph-0-11">
<path d="M 2.15625 -5.53125 C 2.15625 -5.984375 1.78125 -6.234375 1.453125 -6.234375 C 1.046875 -6.234375 0.75 -5.890625 0.75 -5.53125 C 0.75 -5.15625 1.046875 -4.828125 1.453125 -4.828125 C 1.796875 -4.828125 2.15625 -5.09375 2.15625 -5.53125 Z M 0.5 -3.96875 L 0.5 -3.53125 C 1.015625 -3.53125 1.078125 -3.53125 1.078125 -3.171875 L 1.078125 -0.4375 L 0.46875 -0.4375 L 0.46875 0 C 1.0625 -0.015625 1.1875 -0.03125 1.5625 -0.03125 C 2 -0.03125 2.109375 -0.015625 2.625 0 L 2.625 -0.4375 L 2.078125 -0.4375 L 2.078125 -4.03125 Z M 0.5 -3.96875 "/>
</g>
<g id="glyph-0-12">
<path d="M 2.640625 1.296875 L 2.03125 1.296875 L 2.03125 -0.34375 C 2.5625 0.046875 3.046875 0.046875 3.21875 0.046875 C 4.625 0.046875 5.53125 -0.796875 5.53125 -1.984375 C 5.53125 -3.171875 4.71875 -4.03125 3.359375 -4.03125 C 2.640625 -4.03125 2.140625 -3.734375 1.96875 -3.609375 L 1.96875 -4.03125 L 0.375 -3.96875 L 0.375 -3.53125 C 0.546875 -3.53125 0.6875 -3.53125 0.8125 -3.5 C 0.984375 -3.46875 0.984375 -3.375 0.984375 -3.1875 L 0.984375 1.296875 L 0.375 1.296875 L 0.375 1.734375 C 1.03125 1.71875 1.140625 1.71875 1.5 1.71875 C 1.859375 1.71875 1.953125 1.71875 2.640625 1.734375 Z M 2.03125 -3.09375 C 2.1875 -3.296875 2.609375 -3.65625 3.21875 -3.65625 C 3.84375 -3.65625 4.34375 -3.09375 4.34375 -2 C 4.34375 -0.75 3.703125 -0.3125 3.109375 -0.3125 C 2.65625 -0.3125 2.265625 -0.5625 2.03125 -0.9375 Z M 2.03125 -3.09375 "/>
</g>
<g id="glyph-0-13">
<path d="M 6.828125 -3.34375 C 6.890625 -3.484375 6.90625 -3.546875 7.421875 -3.546875 L 7.421875 -3.984375 C 7.171875 -3.953125 6.953125 -3.953125 6.703125 -3.953125 C 6.421875 -3.953125 6.140625 -3.96875 5.859375 -3.984375 L 5.859375 -3.546875 C 5.96875 -3.546875 6.171875 -3.546875 6.359375 -3.46875 C 6.34375 -3.390625 6.34375 -3.375 6.3125 -3.3125 L 5.359375 -1.046875 L 4.328125 -3.546875 L 4.8125 -3.546875 L 4.8125 -3.984375 C 4.375 -3.96875 4.1875 -3.953125 3.796875 -3.953125 C 3.71875 -3.953125 3.28125 -3.953125 2.890625 -3.984375 L 2.890625 -3.546875 L 3.40625 -3.546875 C 3.53125 -3.28125 3.53125 -3.265625 3.578125 -3.125 L 2.796875 -1.25 L 1.84375 -3.546875 L 2.328125 -3.546875 L 2.328125 -3.984375 C 1.71875 -3.96875 1.546875 -3.953125 1.234375 -3.953125 C 1.015625 -3.953125 0.6875 -3.953125 0.234375 -3.984375 L 0.234375 -3.546875 L 0.75 -3.546875 L 2.15625 -0.1875 C 2.25 0.046875 2.390625 0.046875 2.5 0.046875 C 2.75 0.046875 2.796875 -0.046875 2.859375 -0.203125 L 3.828125 -2.53125 L 4.8125 -0.1875 C 4.90625 0.046875 5.046875 0.046875 5.15625 0.046875 C 5.265625 0.046875 5.40625 0.046875 5.5 -0.1875 Z M 6.828125 -3.34375 "/>
</g>
<g id="glyph-0-14">
<path d="M 4.34375 -2.671875 C 4.34375 -3.46875 3.6875 -4.0625 2.3125 -4.0625 C 1.796875 -4.0625 0.65625 -4.046875 0.65625 -3.21875 C 0.65625 -2.8125 0.953125 -2.625 1.234375 -2.625 C 1.546875 -2.625 1.828125 -2.84375 1.828125 -3.203125 C 1.828125 -3.46875 1.671875 -3.625 1.640625 -3.65625 C 1.734375 -3.671875 1.953125 -3.703125 2.28125 -3.703125 C 2.921875 -3.703125 3.296875 -3.375 3.296875 -2.671875 L 3.296875 -2.390625 C 1.796875 -2.390625 0.296875 -2 0.296875 -1 C 0.296875 -0.109375 1.421875 0.046875 2.0625 0.046875 C 2.75 0.046875 3.203125 -0.234375 3.453125 -0.65625 C 3.453125 -0.4375 3.453125 0 4.40625 0 L 4.859375 0 C 5.015625 0 5.140625 0 5.140625 -0.21875 C 5.140625 -0.4375 5 -0.4375 4.921875 -0.4375 C 4.34375 -0.453125 4.34375 -0.53125 4.34375 -0.75 Z M 3.296875 -1.25 C 3.296875 -0.3125 2.25 -0.3125 2.21875 -0.3125 C 1.765625 -0.3125 1.375 -0.59375 1.375 -1 C 1.375 -1.296875 1.546875 -2 3.296875 -2.078125 Z M 3.296875 -1.25 "/>
</g>
<g id="glyph-0-15">
<path d="M 3.53125 2.09375 C 3.53125 2.046875 3.5 2.015625 3.390625 1.90625 C 2.21875 0.8125 1.890625 -0.796875 1.890625 -2.25 C 1.890625 -3.734375 2.25 -5.296875 3.359375 -6.375 C 3.515625 -6.53125 3.53125 -6.53125 3.53125 -6.59375 C 3.53125 -6.703125 3.421875 -6.734375 3.34375 -6.734375 C 3.15625 -6.734375 2.6875 -6.28125 2.578125 -6.171875 C 1.6875 -5.34375 0.984375 -3.953125 0.984375 -2.25 C 0.984375 -0.078125 2.078125 1.234375 2.546875 1.671875 C 2.625 1.734375 3.140625 2.25 3.34375 2.25 C 3.375 2.25 3.53125 2.25 3.53125 2.09375 Z M 3.53125 2.09375 "/>
</g>
<g id="glyph-0-16">
<path d="M 1.96875 -1.953125 C 1.96875 -2.609375 2.21875 -3.65625 3.078125 -3.671875 C 2.984375 -3.578125 2.9375 -3.421875 2.9375 -3.28125 C 2.9375 -2.890625 3.25 -2.703125 3.5 -2.703125 C 3.796875 -2.703125 4.078125 -2.90625 4.078125 -3.28125 C 4.078125 -3.734375 3.609375 -4.03125 3.078125 -4.03125 C 2.453125 -4.03125 2.078125 -3.578125 1.875 -3.0625 L 1.859375 -3.0625 L 1.859375 -4.03125 L 0.375 -3.96875 L 0.375 -3.53125 C 0.90625 -3.53125 0.984375 -3.53125 0.984375 -3.171875 L 0.984375 -0.4375 L 0.375 -0.4375 L 0.375 0 C 1.03125 -0.03125 1.078125 -0.03125 1.515625 -0.03125 C 1.734375 -0.03125 2.265625 -0.03125 2.734375 0 L 2.734375 -0.4375 L 1.96875 -0.4375 Z M 1.96875 -1.953125 "/>
</g>
<g id="glyph-0-17">
<path d="M 2.078125 -3.546875 L 3.140625 -3.546875 L 3.140625 -3.984375 L 2.03125 -3.984375 L 2.03125 -4.875 C 2.03125 -5.84375 2.71875 -5.921875 2.953125 -5.921875 C 2.984375 -5.921875 3.0625 -5.921875 3.0625 -5.90625 C 3.0625 -5.890625 3.0625 -5.890625 3.046875 -5.859375 C 2.953125 -5.75 2.90625 -5.625 2.90625 -5.484375 C 2.90625 -5.109375 3.203125 -4.90625 3.46875 -4.90625 C 3.765625 -4.90625 4.046875 -5.125 4.046875 -5.484375 C 4.046875 -5.890625 3.6875 -6.28125 3 -6.28125 C 2.046875 -6.28125 1.078125 -5.875 1.078125 -4.875 L 1.078125 -3.984375 L 0.390625 -3.984375 L 0.390625 -3.546875 L 1.078125 -3.546875 L 1.078125 -0.4375 L 0.46875 -0.4375 L 0.46875 0 C 1.140625 -0.03125 1.1875 -0.03125 1.625 -0.03125 C 1.84375 -0.03125 2.375 -0.03125 2.84375 0 L 2.84375 -0.4375 L 2.078125 -0.4375 Z M 2.078125 -3.546875 "/>
</g>
<g id="glyph-0-18">
<path d="M 3.125 -2.25 C 3.125 -4.40625 2.03125 -5.71875 1.5625 -6.15625 C 1.5 -6.21875 0.96875 -6.734375 0.765625 -6.734375 C 0.703125 -6.734375 0.59375 -6.703125 0.59375 -6.578125 C 0.59375 -6.53125 0.625 -6.5 0.71875 -6.40625 C 1.8125 -5.34375 2.21875 -3.921875 2.21875 -2.25 C 2.21875 -0.75 1.875 0.8125 0.765625 1.890625 C 0.59375 2.046875 0.59375 2.046875 0.59375 2.09375 C 0.59375 2.21875 0.703125 2.25 0.765625 2.25 C 0.953125 2.25 1.4375 1.796875 1.53125 1.6875 C 2.4375 0.859375 3.125 -0.53125 3.125 -2.25 Z M 3.125 -2.25 "/>
</g>
<g id="glyph-1-0">
<path d="M 3.0625 -0.640625 C 3.109375 -0.265625 3.375 0.046875 3.765625 0.046875 C 3.984375 0.046875 4.546875 -0.078125 4.546875 -0.796875 L 4.546875 -1.296875 L 4.296875 -1.296875 L 4.296875 -0.8125 C 4.296875 -0.703125 4.296875 -0.265625 3.96875 -0.265625 C 3.65625 -0.265625 3.65625 -0.6875 3.65625 -0.828125 L 3.65625 -2.40625 C 3.65625 -2.921875 3.65625 -3.21875 3.25 -3.59375 C 2.921875 -3.890625 2.484375 -4.015625 2.03125 -4.015625 C 1.28125 -4.015625 0.65625 -3.640625 0.65625 -3.0625 C 0.65625 -2.796875 0.84375 -2.640625 1.078125 -2.640625 C 1.3125 -2.640625 1.484375 -2.8125 1.484375 -3.046875 C 1.484375 -3.4375 1.09375 -3.484375 1.078125 -3.484375 C 1.328125 -3.71875 1.765625 -3.796875 2.015625 -3.796875 C 2.46875 -3.796875 2.984375 -3.453125 2.984375 -2.65625 L 2.984375 -2.375 C 2.5 -2.34375 1.828125 -2.3125 1.234375 -2.015625 C 0.578125 -1.703125 0.390625 -1.234375 0.390625 -0.875 C 0.390625 -0.140625 1.25 0.09375 1.859375 0.09375 C 2.59375 0.09375 2.9375 -0.390625 3.0625 -0.640625 Z M 2.984375 -1.265625 C 2.984375 -0.390625 2.3125 -0.125 1.921875 -0.125 C 1.5 -0.125 1.109375 -0.4375 1.109375 -0.875 C 1.109375 -1.46875 1.609375 -2.09375 2.984375 -2.15625 Z M 2.984375 -1.265625 "/>
</g>
<g id="glyph-1-1">
<path d="M 1.65625 -3.96875 L 0.359375 -3.859375 L 0.359375 -3.59375 C 0.9375 -3.59375 1.015625 -3.53125 1.015625 -3.09375 L 1.015625 -0.6875 C 1.015625 -0.28125 0.921875 -0.28125 0.328125 -0.28125 L 0.328125 0 C 0.71875 -0.015625 0.921875 -0.03125 1.3125 -0.03125 C 1.453125 -0.03125 1.828125 -0.03125 2.265625 0 L 2.265625 -0.28125 C 1.6875 -0.28125 1.65625 -0.328125 1.65625 -0.671875 Z M 1.671875 -5.53125 C 1.671875 -5.796875 1.46875 -6.015625 1.1875 -6.015625 C 0.921875 -6.015625 0.703125 -5.78125 0.703125 -5.53125 C 0.703125 -5.265625 0.921875 -5.046875 1.1875 -5.046875 C 1.46875 -5.046875 1.671875 -5.25 1.671875 -5.53125 Z M 1.671875 -5.53125 "/>
</g>
<g id="glyph-1-2">
<path d="M 1.59375 -2.046875 C 1.59375 -2.421875 1.6875 -3.734375 2.71875 -3.734375 C 2.703125 -3.71875 2.5625 -3.609375 2.5625 -3.40625 C 2.5625 -3.15625 2.75 -3 2.953125 -3 C 3.140625 -3 3.34375 -3.140625 3.34375 -3.40625 C 3.34375 -3.6875 3.078125 -3.96875 2.671875 -3.96875 C 2.140625 -3.96875 1.765625 -3.59375 1.546875 -3.03125 L 1.546875 -3.96875 L 0.265625 -3.859375 L 0.265625 -3.59375 C 0.875 -3.59375 0.953125 -3.53125 0.953125 -3.078125 L 0.953125 -0.6875 C 0.953125 -0.28125 0.859375 -0.28125 0.265625 -0.28125 L 0.265625 0 C 0.75 -0.015625 0.859375 -0.03125 1.3125 -0.03125 C 1.671875 -0.03125 1.890625 -0.015625 2.453125 0 L 2.453125 -0.28125 L 2.28125 -0.28125 C 1.625 -0.28125 1.59375 -0.375 1.59375 -0.703125 Z M 1.59375 -2.046875 "/>
</g>
<g id="glyph-1-3">
<path d="M 2.6875 -3.59375 L 2.6875 -3.859375 L 1.625 -3.859375 L 1.625 -4.875 C 1.625 -5.6875 2.0625 -6.09375 2.453125 -6.09375 C 2.53125 -6.09375 2.625 -6.078125 2.71875 -6.046875 C 2.625 -6.015625 2.484375 -5.90625 2.484375 -5.671875 C 2.484375 -5.4375 2.65625 -5.28125 2.875 -5.28125 C 3.125 -5.28125 3.28125 -5.453125 3.28125 -5.6875 C 3.28125 -6.03125 2.9375 -6.328125 2.453125 -6.328125 C 1.75 -6.328125 1.015625 -5.796875 1.015625 -4.890625 L 1.015625 -3.859375 L 0.3125 -3.859375 L 0.3125 -3.59375 L 1.015625 -3.59375 L 1.015625 -0.6875 C 1.015625 -0.28125 0.921875 -0.28125 0.328125 -0.28125 L 0.328125 0 C 0.796875 -0.015625 0.921875 -0.03125 1.375 -0.03125 C 1.734375 -0.03125 1.953125 -0.015625 2.515625 0 L 2.515625 -0.28125 L 2.328125 -0.28125 C 1.671875 -0.28125 1.65625 -0.375 1.65625 -0.703125 L 1.65625 -3.59375 Z M 2.6875 -3.59375 "/>
</g>
<g id="glyph-1-4">
<path d="M 4.34375 -1.90625 C 4.34375 -3.078125 3.40625 -4.015625 2.3125 -4.015625 C 1.171875 -4.015625 0.265625 -3.0625 0.265625 -1.90625 C 0.265625 -0.796875 1.1875 0.09375 2.296875 0.09375 C 3.4375 0.09375 4.34375 -0.8125 4.34375 -1.90625 Z M 2.3125 -0.15625 C 1.859375 -0.15625 1.484375 -0.375 1.28125 -0.71875 C 1.046875 -1.109375 1.03125 -1.578125 1.03125 -1.984375 C 1.03125 -2.328125 1.03125 -2.828125 1.25 -3.203125 C 1.53125 -3.65625 1.96875 -3.796875 2.296875 -3.796875 C 2.8125 -3.796875 3.171875 -3.5 3.359375 -3.203125 C 3.5625 -2.828125 3.5625 -2.375 3.5625 -1.984375 C 3.5625 -1.65625 3.5625 -1.140625 3.34375 -0.75 C 3.09375 -0.328125 2.6875 -0.15625 2.3125 -0.15625 Z M 2.3125 -0.15625 "/>
</g>
<g id="glyph-1-5">
<path d="M 1.65625 -6.21875 L 0.328125 -6.125 L 0.328125 -5.84375 C 0.9375 -5.84375 1.015625 -5.78125 1.015625 -5.34375 L 1.015625 -0.6875 C 1.015625 -0.28125 0.921875 -0.28125 0.328125 -0.28125 L 0.328125 0 C 0.75 -0.015625 0.921875 -0.03125 1.328125 -0.03125 C 1.75 -0.03125 1.90625 -0.015625 2.34375 0 L 2.34375 -0.28125 C 1.75 -0.28125 1.65625 -0.28125 1.65625 -0.6875 Z M 1.65625 -6.21875 "/>
</g>
<g id="glyph-1-6">
<path d="M 0.9375 -3.09375 C 0.9375 -2.9375 0.9375 -2.828125 1.0625 -2.828125 C 1.125 -2.828125 1.15625 -2.875 1.203125 -2.953125 C 1.484375 -3.328125 1.90625 -3.546875 2.375 -3.546875 C 3.34375 -3.546875 3.34375 -2.15625 3.34375 -1.84375 C 3.34375 -1.5625 3.34375 -1 3.078125 -0.59375 C 2.84375 -0.21875 2.46875 -0.046875 2.109375 -0.046875 C 1.59375 -0.046875 0.984375 -0.390625 0.765625 -1.046875 C 0.78125 -1.046875 0.828125 -1.03125 0.890625 -1.03125 C 1.078125 -1.03125 1.34375 -1.140625 1.34375 -1.46875 C 1.34375 -1.75 1.140625 -1.90625 0.890625 -1.90625 C 0.703125 -1.90625 0.453125 -1.796875 0.453125 -1.4375 C 0.453125 -0.625 1.140625 0.203125 2.140625 0.203125 C 3.21875 0.203125 4.140625 -0.6875 4.140625 -1.796875 C 4.140625 -2.875 3.375 -3.765625 2.390625 -3.765625 C 1.96875 -3.765625 1.53125 -3.625 1.203125 -3.296875 L 1.203125 -5.0625 C 1.484375 -4.984375 1.765625 -4.9375 2.03125 -4.9375 C 3.140625 -4.9375 3.78125 -5.734375 3.78125 -5.859375 C 3.78125 -5.9375 3.734375 -5.96875 3.6875 -5.96875 C 3.671875 -5.96875 3.65625 -5.96875 3.5625 -5.921875 C 3.140625 -5.765625 2.734375 -5.6875 2.359375 -5.6875 C 1.96875 -5.6875 1.5625 -5.765625 1.15625 -5.921875 C 1.0625 -5.96875 1.046875 -5.96875 1.046875 -5.96875 C 0.9375 -5.96875 0.9375 -5.890625 0.9375 -5.734375 Z M 0.9375 -3.09375 "/>
</g>
<g id="glyph-1-7">
<path d="M 4.25 -2.875 C 4.25 -3.46875 4.21875 -4.25 3.90625 -4.921875 C 3.5 -5.765625 2.828125 -5.96875 2.3125 -5.96875 C 1.765625 -5.96875 1.078125 -5.765625 0.6875 -4.890625 C 0.40625 -4.28125 0.359375 -3.546875 0.359375 -2.875 C 0.359375 -2.28125 0.375 -1.421875 0.765625 -0.703125 C 1.1875 0.046875 1.890625 0.203125 2.296875 0.203125 C 2.875 0.203125 3.546875 -0.046875 3.921875 -0.875 C 4.1875 -1.484375 4.25 -2.15625 4.25 -2.875 Z M 2.3125 -0.03125 C 2.03125 -0.03125 1.390625 -0.15625 1.21875 -1.171875 C 1.125 -1.6875 1.125 -2.46875 1.125 -2.984375 C 1.125 -3.59375 1.125 -4.296875 1.234375 -4.796875 C 1.421875 -5.59375 1.984375 -5.75 2.296875 -5.75 C 2.640625 -5.75 3.203125 -5.5625 3.375 -4.734375 C 3.46875 -4.25 3.46875 -3.546875 3.46875 -2.984375 C 3.46875 -2.421875 3.46875 -1.671875 3.375 -1.140625 C 3.1875 -0.109375 2.53125 -0.03125 2.3125 -0.03125 Z M 2.3125 -0.03125 "/>
</g>
<g id="glyph-1-8">
<path d="M 6.34375 -2.96875 C 6.46875 -2.96875 6.640625 -2.96875 6.640625 -3.15625 C 6.640625 -3.359375 6.453125 -3.359375 6.3125 -3.359375 L 0.84375 -3.359375 C 0.703125 -3.359375 0.515625 -3.359375 0.515625 -3.15625 C 0.515625 -2.96875 0.6875 -2.96875 0.8125 -2.96875 Z M 6.3125 -1.140625 C 6.453125 -1.140625 6.640625 -1.140625 6.640625 -1.34375 C 6.640625 -1.53125 6.46875 -1.53125 6.34375 -1.53125 L 0.8125 -1.53125 C 0.6875 -1.53125 0.515625 -1.53125 0.515625 -1.34375 C 0.515625 -1.140625 0.703125 -1.140625 0.84375 -1.140625 Z M 6.3125 -1.140625 "/>
</g>
<g id="glyph-1-9">
<path d="M 2.71875 -5.734375 C 2.71875 -5.953125 2.71875 -5.96875 2.5 -5.96875 C 1.9375 -5.40625 1.109375 -5.40625 0.828125 -5.40625 L 0.828125 -5.125 C 1 -5.125 1.546875 -5.125 2.03125 -5.359375 L 2.03125 -0.71875 C 2.03125 -0.390625 2.015625 -0.28125 1.171875 -0.28125 L 0.890625 -0.28125 L 0.890625 0 C 1.203125 -0.03125 2.015625 -0.03125 2.375 -0.03125 C 2.75 -0.03125 3.546875 -0.03125 3.875 0 L 3.875 -0.28125 L 3.59375 -0.28125 C 2.75 -0.28125 2.71875 -0.390625 2.71875 -0.71875 Z M 2.71875 -5.734375 "/>
</g>
<g id="glyph-1-10">
<path d="M 1.671875 -2.328125 C 1.671875 -3.296875 2.375 -3.734375 2.90625 -3.734375 C 3.40625 -3.734375 3.5625 -3.390625 3.5625 -2.765625 L 3.5625 -0.6875 C 3.5625 -0.28125 3.46875 -0.28125 2.875 -0.28125 L 2.875 0 C 3.296875 -0.015625 3.46875 -0.03125 3.890625 -0.03125 C 4.328125 -0.03125 4.4375 -0.015625 4.921875 0 L 4.921875 -0.28125 C 4.328125 -0.28125 4.21875 -0.28125 4.21875 -0.6875 L 4.21875 -2.328125 C 4.21875 -3.296875 4.921875 -3.734375 5.46875 -3.734375 C 5.953125 -3.734375 6.109375 -3.390625 6.109375 -2.765625 L 6.109375 -0.6875 C 6.109375 -0.28125 6.015625 -0.28125 5.421875 -0.28125 L 5.421875 0 C 5.84375 -0.015625 6.015625 -0.03125 6.453125 -0.03125 C 6.875 -0.03125 7 -0.015625 7.46875 0 L 7.46875 -0.28125 C 7.015625 -0.28125 6.796875 -0.28125 6.78125 -0.5625 L 6.78125 -2.28125 C 6.78125 -3.0625 6.78125 -3.3125 6.484375 -3.640625 C 6.296875 -3.859375 5.9375 -3.96875 5.53125 -3.96875 C 4.875 -3.96875 4.4375 -3.59375 4.1875 -3.109375 C 4.078125 -3.640625 3.71875 -3.96875 2.96875 -3.96875 C 2.25 -3.96875 1.8125 -3.5 1.625 -3.078125 L 1.609375 -3.078125 L 1.609375 -3.96875 L 0.3125 -3.859375 L 0.3125 -3.59375 C 0.921875 -3.59375 1 -3.53125 1 -3.078125 L 1 -0.6875 C 1 -0.28125 0.90625 -0.28125 0.3125 -0.28125 L 0.3125 0 C 0.734375 -0.015625 0.90625 -0.03125 1.34375 -0.03125 C 1.765625 -0.03125 1.890625 -0.015625 2.359375 0 L 2.359375 -0.28125 C 1.765625 -0.28125 1.671875 -0.28125 1.671875 -0.6875 Z M 1.671875 -2.328125 "/>
</g>
<g id="glyph-2-0">
<path d="M 3.609375 -3.421875 C 3.265625 -3.421875 3.078125 -3.15625 3.078125 -2.9375 C 3.078125 -2.671875 3.3125 -2.609375 3.421875 -2.609375 C 3.609375 -2.609375 3.921875 -2.765625 3.921875 -3.1875 C 3.921875 -3.65625 3.453125 -3.96875 2.828125 -3.96875 C 1.609375 -3.96875 0.390625 -2.71875 0.390625 -1.4375 C 0.390625 -0.53125 0.984375 0.09375 1.890625 0.09375 C 3.234375 0.09375 3.984375 -0.828125 3.984375 -0.953125 C 3.984375 -1 3.921875 -1.078125 3.859375 -1.078125 C 3.828125 -1.078125 3.8125 -1.0625 3.734375 -0.96875 C 3.1875 -0.3125 2.375 -0.125 1.90625 -0.125 C 1.40625 -0.125 1.078125 -0.453125 1.078125 -1.109375 C 1.078125 -1.484375 1.25 -2.375 1.609375 -2.953125 C 1.8125 -3.28125 2.28125 -3.734375 2.84375 -3.734375 C 3.015625 -3.734375 3.390625 -3.703125 3.609375 -3.421875 Z M 3.609375 -3.421875 "/>
</g>
<g id="glyph-2-1">
<path d="M 6.9375 -6.078125 C 6.96875 -6.1875 6.96875 -6.203125 6.96875 -6.21875 C 6.96875 -6.234375 6.953125 -6.328125 6.859375 -6.328125 C 6.8125 -6.328125 6.78125 -6.296875 6.71875 -6.21875 L 6.171875 -5.625 C 6.140625 -5.578125 6.09375 -5.546875 6.09375 -5.546875 C 6.078125 -5.546875 6.078125 -5.546875 6.015625 -5.609375 C 5.890625 -5.796875 5.484375 -6.328125 4.546875 -6.328125 C 2.5 -6.328125 0.453125 -4.328125 0.453125 -2.28125 C 0.453125 -0.828125 1.53125 0.203125 2.96875 0.203125 C 3.90625 0.203125 4.640625 -0.28125 4.984375 -0.59375 C 5.796875 -1.328125 5.953125 -2.109375 5.953125 -2.15625 C 5.953125 -2.1875 5.9375 -2.25 5.828125 -2.25 C 5.734375 -2.25 5.71875 -2.203125 5.703125 -2.15625 C 5.265625 -0.71875 3.984375 -0.078125 3.078125 -0.078125 C 2.21875 -0.078125 1.296875 -0.609375 1.296875 -1.96875 C 1.296875 -2.375 1.421875 -3.78125 2.328125 -4.890625 C 2.875 -5.53125 3.75 -6.046875 4.609375 -6.046875 C 5.609375 -6.046875 6.140625 -5.28125 6.140625 -4.296875 C 6.140625 -3.984375 6.109375 -3.921875 6.109375 -3.859375 C 6.109375 -3.765625 6.21875 -3.765625 6.25 -3.765625 C 6.359375 -3.765625 6.359375 -3.78125 6.40625 -3.953125 Z M 6.9375 -6.078125 "/>
</g>
<g id="glyph-3-0">
<path d="M 7.640625 -6.671875 C 7.640625 -6.859375 7.640625 -6.953125 7.453125 -6.953125 C 7.359375 -6.953125 7.34375 -6.921875 7.265625 -6.859375 L 6.609375 -6.265625 C 5.984375 -6.765625 5.328125 -6.953125 4.640625 -6.953125 C 2.15625 -6.953125 0.640625 -5.46875 0.640625 -3.421875 C 0.640625 -1.375 2.15625 0.109375 4.640625 0.109375 C 6.515625 0.109375 7.640625 -1.109375 7.640625 -2.265625 C 7.640625 -2.46875 7.5625 -2.46875 7.390625 -2.46875 C 7.265625 -2.46875 7.171875 -2.46875 7.171875 -2.296875 C 7.09375 -0.96875 5.890625 -0.359375 4.890625 -0.359375 C 4.109375 -0.359375 3.265625 -0.59375 2.75 -1.203125 C 2.28125 -1.78125 2.15625 -2.515625 2.15625 -3.421875 C 2.15625 -3.984375 2.1875 -5.046875 2.828125 -5.71875 C 3.46875 -6.375 4.34375 -6.484375 4.859375 -6.484375 C 5.9375 -6.484375 6.875 -5.71875 7.09375 -4.453125 C 7.125 -4.265625 7.140625 -4.25 7.359375 -4.25 C 7.625 -4.25 7.640625 -4.265625 7.640625 -4.53125 Z M 7.640625 -6.671875 "/>
</g>
<g id="glyph-3-1">
<path d="M 5.40625 -2.171875 C 5.40625 -3.515625 4.484375 -4.515625 2.859375 -4.515625 C 1.21875 -4.515625 0.3125 -3.5 0.3125 -2.171875 C 0.3125 -0.9375 1.203125 0.0625 2.859375 0.0625 C 4.53125 0.0625 5.40625 -0.953125 5.40625 -2.171875 Z M 2.859375 -0.34375 C 1.59375 -0.34375 1.59375 -1.421875 1.59375 -2.28125 C 1.59375 -2.734375 1.59375 -3.234375 1.765625 -3.578125 C 1.953125 -3.953125 2.375 -4.15625 2.859375 -4.15625 C 3.28125 -4.15625 3.703125 -4 3.921875 -3.65625 C 4.125 -3.3125 4.125 -2.765625 4.125 -2.28125 C 4.125 -1.421875 4.125 -0.34375 2.859375 -0.34375 Z M 2.859375 -0.34375 "/>
</g>
<g id="glyph-3-2">
<path d="M 1.140625 -3.546875 L 1.140625 -0.46875 L 0.453125 -0.46875 L 0.453125 0 C 0.734375 -0.015625 1.328125 -0.03125 1.703125 -0.03125 C 2.09375 -0.03125 2.6875 -0.015625 2.953125 0 L 2.953125 -0.46875 L 2.265625 -0.46875 L 2.265625 -2.546875 C 2.265625 -3.640625 3.140625 -4.125 3.765625 -4.125 C 4.09375 -4.125 4.3125 -3.921875 4.3125 -3.15625 L 4.3125 -0.46875 L 3.625 -0.46875 L 3.625 0 C 3.90625 -0.015625 4.5 -0.03125 4.890625 -0.03125 C 5.28125 -0.03125 5.859375 -0.015625 6.140625 0 L 6.140625 -0.46875 L 5.453125 -0.46875 L 5.453125 -2.546875 C 5.453125 -3.640625 6.3125 -4.125 6.9375 -4.125 C 7.28125 -4.125 7.5 -3.921875 7.5 -3.15625 L 7.5 -0.46875 L 6.8125 -0.46875 L 6.8125 0 C 7.09375 -0.015625 7.6875 -0.03125 8.0625 -0.03125 C 8.453125 -0.03125 9.046875 -0.015625 9.328125 0 L 9.328125 -0.46875 L 8.640625 -0.46875 L 8.640625 -3.046875 C 8.640625 -4.078125 8.125 -4.484375 7.09375 -4.484375 C 6.1875 -4.484375 5.671875 -3.984375 5.40625 -3.53125 C 5.21875 -4.453125 4.296875 -4.484375 3.921875 -4.484375 C 3.046875 -4.484375 2.484375 -4.03125 2.15625 -3.40625 L 2.15625 -4.484375 L 0.453125 -4.40625 L 0.453125 -3.9375 C 1.0625 -3.9375 1.140625 -3.9375 1.140625 -3.546875 Z M 1.140625 -3.546875 "/>
</g>
<g id="glyph-3-3">
<path d="M 2.1875 -3.28125 C 2.1875 -3.46875 2.203125 -3.484375 2.34375 -3.625 C 2.734375 -4.03125 3.265625 -4.09375 3.484375 -4.09375 C 4.140625 -4.09375 4.703125 -3.484375 4.703125 -2.21875 C 4.703125 -0.8125 4 -0.296875 3.359375 -0.296875 C 3.21875 -0.296875 2.75 -0.296875 2.296875 -0.84375 C 2.1875 -0.96875 2.1875 -0.984375 2.1875 -1.171875 Z M 2.1875 -0.390625 C 2.625 -0.046875 3.0625 0.0625 3.46875 0.0625 C 4.96875 0.0625 5.984375 -0.84375 5.984375 -2.21875 C 5.984375 -3.546875 5.078125 -4.484375 3.640625 -4.484375 C 2.890625 -4.484375 2.359375 -4.171875 2.140625 -4 L 2.140625 -4.484375 L 0.375 -4.40625 L 0.375 -3.9375 C 0.984375 -3.9375 1.0625 -3.9375 1.0625 -3.5625 L 1.0625 1.46875 L 0.375 1.46875 L 0.375 1.9375 C 0.640625 1.921875 1.25 1.90625 1.625 1.90625 C 2.015625 1.90625 2.609375 1.921875 2.875 1.9375 L 2.875 1.46875 L 2.1875 1.46875 Z M 2.1875 -0.390625 "/>
</g>
<g id="glyph-3-4">
<path d="M 4.359375 -0.71875 L 4.359375 0.0625 L 6.125 0 L 6.125 -0.46875 C 5.515625 -0.46875 5.4375 -0.46875 5.4375 -0.859375 L 5.4375 -4.484375 L 3.625 -4.40625 L 3.625 -3.9375 C 4.234375 -3.9375 4.3125 -3.9375 4.3125 -3.546875 L 4.3125 -1.640625 C 4.3125 -0.828125 3.796875 -0.296875 3.078125 -0.296875 C 2.296875 -0.296875 2.265625 -0.546875 2.265625 -1.09375 L 2.265625 -4.484375 L 0.453125 -4.40625 L 0.453125 -3.9375 C 1.0625 -3.9375 1.140625 -3.9375 1.140625 -3.546875 L 1.140625 -1.21875 C 1.140625 -0.15625 1.9375 0.0625 2.9375 0.0625 C 3.1875 0.0625 3.90625 0.0625 4.359375 -0.71875 Z M 4.359375 -0.71875 "/>
</g>
<g id="glyph-3-5">
<path d="M 1.03125 -3.953125 L 1.03125 -1.21875 C 1.03125 -0.15625 1.890625 0.0625 2.609375 0.0625 C 3.359375 0.0625 3.8125 -0.515625 3.8125 -1.234375 L 3.8125 -1.765625 L 3.34375 -1.765625 L 3.34375 -1.25 C 3.34375 -0.578125 3.015625 -0.34375 2.734375 -0.34375 C 2.15625 -0.34375 2.15625 -0.984375 2.15625 -1.203125 L 2.15625 -3.953125 L 3.625 -3.953125 L 3.625 -4.421875 L 2.15625 -4.421875 L 2.15625 -6.328125 L 1.6875 -6.328125 C 1.6875 -5.328125 1.203125 -4.34375 0.203125 -4.3125 L 0.203125 -3.953125 Z M 1.03125 -3.953125 "/>
</g>
<g id="glyph-3-6">
<path d="M 3.734375 -0.765625 C 3.734375 -0.453125 3.734375 0 4.765625 0 L 5.25 0 C 5.4375 0 5.5625 0 5.5625 -0.234375 C 5.5625 -0.46875 5.4375 -0.46875 5.296875 -0.46875 C 4.6875 -0.484375 4.6875 -0.609375 4.6875 -0.84375 L 4.6875 -2.984375 C 4.6875 -3.875 3.984375 -4.515625 2.5 -4.515625 C 1.9375 -4.515625 0.71875 -4.46875 0.71875 -3.59375 C 0.71875 -3.15625 1.0625 -2.96875 1.328125 -2.96875 C 1.640625 -2.96875 1.96875 -3.1875 1.96875 -3.59375 C 1.96875 -3.890625 1.78125 -4.0625 1.75 -4.09375 C 2.03125 -4.140625 2.34375 -4.15625 2.46875 -4.15625 C 3.203125 -4.15625 3.5625 -3.734375 3.5625 -2.984375 L 3.5625 -2.640625 C 2.84375 -2.609375 0.3125 -2.515625 0.3125 -1.078125 C 0.3125 -0.125 1.5625 0.0625 2.25 0.0625 C 3.046875 0.0625 3.515625 -0.34375 3.734375 -0.765625 Z M 3.5625 -2.328125 L 3.5625 -1.390625 C 3.5625 -0.421875 2.640625 -0.296875 2.390625 -0.296875 C 1.890625 -0.296875 1.484375 -0.640625 1.484375 -1.09375 C 1.484375 -2.15625 3.0625 -2.296875 3.5625 -2.328125 Z M 3.5625 -2.328125 "/>
</g>
<g id="glyph-3-7">
<path d="M 2.234375 -4.484375 L 0.5 -4.40625 L 0.5 -3.9375 C 1.09375 -3.9375 1.15625 -3.9375 1.15625 -3.546875 L 1.15625 -0.46875 L 0.46875 -0.46875 L 0.46875 0 C 0.78125 -0.015625 1.265625 -0.03125 1.6875 -0.03125 C 1.984375 -0.03125 2.5 -0.015625 2.84375 0 L 2.84375 -0.46875 L 2.234375 -0.46875 Z M 2.328125 -6.15625 C 2.328125 -6.59375 1.96875 -6.921875 1.5625 -6.921875 C 1.125 -6.921875 0.78125 -6.578125 0.78125 -6.15625 C 0.78125 -5.71875 1.125 -5.375 1.5625 -5.375 C 1.96875 -5.375 2.328125 -5.71875 2.328125 -6.15625 Z M 2.328125 -6.15625 "/>
</g>
<g id="glyph-3-8">
<path d="M 1.140625 -3.546875 L 1.140625 -0.46875 L 0.453125 -0.46875 L 0.453125 0 C 0.734375 -0.015625 1.328125 -0.03125 1.703125 -0.03125 C 2.09375 -0.03125 2.6875 -0.015625 2.953125 0 L 2.953125 -0.46875 L 2.265625 -0.46875 L 2.265625 -2.546875 C 2.265625 -3.640625 3.125 -4.125 3.765625 -4.125 C 4.09375 -4.125 4.3125 -3.921875 4.3125 -3.15625 L 4.3125 -0.46875 L 3.625 -0.46875 L 3.625 0 C 3.890625 -0.015625 4.5 -0.03125 4.875 -0.03125 C 5.265625 -0.03125 5.859375 -0.015625 6.125 0 L 6.125 -0.46875 L 5.4375 -0.46875 L 5.4375 -3.046875 C 5.4375 -4.09375 4.90625 -4.484375 3.90625 -4.484375 C 2.953125 -4.484375 2.421875 -3.921875 2.15625 -3.40625 L 2.15625 -4.484375 L 0.453125 -4.40625 L 0.453125 -3.9375 C 1.0625 -3.9375 1.140625 -3.9375 1.140625 -3.546875 Z M 1.140625 -3.546875 "/>
</g>
<g id="glyph-3-9">
<path d="M 2.234375 -6.921875 L 0.46875 -6.84375 L 0.46875 -6.375 C 1.09375 -6.375 1.15625 -6.375 1.15625 -5.984375 L 1.15625 -0.46875 L 0.46875 -0.46875 L 0.46875 0 C 0.78125 -0.015625 1.265625 -0.03125 1.6875 -0.03125 C 2.125 -0.03125 2.578125 -0.015625 2.921875 0 L 2.921875 -0.46875 L 2.234375 -0.46875 Z M 2.234375 -6.921875 "/>
</g>
<g id="glyph-3-10">
<path d="M 1.46875 -6.375 L 1.46875 -0.46875 L 0.390625 -0.46875 L 0.390625 0 L 4.6875 0 C 6.65625 0 8.140625 -1.21875 8.140625 -3.359375 C 8.140625 -5.546875 6.65625 -6.84375 4.671875 -6.84375 L 0.390625 -6.84375 L 0.390625 -6.375 Z M 2.828125 -0.46875 L 2.828125 -6.375 L 4.28125 -6.375 C 4.9375 -6.375 5.765625 -6.1875 6.25 -5.484375 C 6.59375 -4.96875 6.671875 -4.296875 6.671875 -3.375 C 6.671875 -2.28125 6.5625 -1.75 6.234375 -1.3125 C 5.765625 -0.625 4.890625 -0.46875 4.28125 -0.46875 Z M 2.828125 -0.46875 "/>
</g>
<g id="glyph-4-0">
<path d="M 4.890625 -4.375 C 4.96875 -4.453125 4.96875 -4.46875 4.96875 -4.578125 C 4.96875 -4.78125 4.875 -4.78125 4.71875 -4.78125 L 0.75 -4.78125 L 0.640625 -3.109375 L 1.09375 -3.109375 C 1.171875 -4.359375 2.25 -4.390625 2.671875 -4.390625 L 3.671875 -4.390625 L 0.59375 -0.421875 C 0.515625 -0.34375 0.515625 -0.328125 0.515625 -0.21875 C 0.515625 0 0.609375 0 0.765625 0 L 4.875 0 L 5.015625 -1.953125 L 4.578125 -1.953125 C 4.5 -0.84375 4.03125 -0.421875 2.921875 -0.421875 L 1.828125 -0.421875 Z M 4.890625 -4.375 "/>
</g>
<g id="glyph-4-1">
<path d="M 4.21875 -1.515625 C 4.21875 -2.34375 3.609375 -3.15625 2.25 -3.15625 C 0.875 -3.15625 0.28125 -2.34375 0.28125 -1.515625 C 0.28125 -0.703125 0.90625 0.046875 2.25 0.046875 C 3.609375 0.046875 4.21875 -0.703125 4.21875 -1.515625 Z M 2.25 -0.3125 C 1.25 -0.3125 1.25 -1 1.25 -1.609375 C 1.25 -2.15625 1.25 -2.84375 2.25 -2.84375 C 3.25 -2.84375 3.25 -2.15625 3.25 -1.609375 C 3.25 -1 3.25 -0.3125 2.25 -0.3125 Z M 2.25 -0.3125 "/>
</g>
<g id="glyph-4-2">
<path d="M 6.75 -2.09375 C 6.75 -2.96875 6.171875 -3.140625 5.546875 -3.140625 C 4.890625 -3.140625 4.453125 -2.828125 4.234375 -2.484375 C 4.0625 -3.09375 3.453125 -3.140625 3.078125 -3.140625 C 2.25 -3.140625 1.84375 -2.640625 1.703125 -2.40625 L 1.703125 -3.140625 L 0.453125 -3.078125 L 0.453125 -2.6875 C 0.859375 -2.6875 0.90625 -2.6875 0.90625 -2.421875 L 0.90625 -0.390625 L 0.453125 -0.390625 L 0.453125 0 C 0.453125 0 1.015625 -0.03125 1.359375 -0.03125 C 1.6875 -0.03125 2.265625 0 2.265625 0 L 2.265625 -0.390625 L 1.796875 -0.390625 L 1.796875 -1.734375 C 1.796875 -2.5625 2.546875 -2.8125 2.9375 -2.8125 C 3.25 -2.8125 3.390625 -2.65625 3.390625 -2.140625 L 3.390625 -0.390625 L 2.921875 -0.390625 L 2.921875 0 C 2.921875 0 3.484375 -0.03125 3.828125 -0.03125 C 4.171875 -0.03125 4.734375 0 4.734375 0 L 4.734375 -0.390625 L 4.265625 -0.390625 L 4.265625 -1.734375 C 4.265625 -2.5625 5.015625 -2.8125 5.421875 -2.8125 C 5.734375 -2.8125 5.859375 -2.65625 5.859375 -2.140625 L 5.859375 -0.390625 L 5.390625 -0.390625 L 5.390625 0 C 5.40625 0 5.96875 -0.03125 6.296875 -0.03125 C 6.640625 -0.03125 7.203125 0 7.21875 0 L 7.21875 -0.390625 L 6.75 -0.390625 Z M 6.75 -2.09375 "/>
</g>
<g id="glyph-4-3">
<path d="M 3.59375 -1.453125 C 3.75 -1.453125 3.84375 -1.453125 3.84375 -1.65625 C 3.84375 -1.859375 3.796875 -2.390625 3.453125 -2.71875 C 3.078125 -3.09375 2.5625 -3.15625 2.1875 -3.15625 C 0.890625 -3.15625 0.28125 -2.390625 0.28125 -1.5625 C 0.28125 -0.734375 0.921875 0.046875 2.296875 0.046875 C 2.546875 0.046875 2.953125 0.015625 3.296875 -0.171875 C 3.71875 -0.390625 3.84375 -0.71875 3.84375 -0.796875 C 3.84375 -0.953125 3.6875 -0.953125 3.609375 -0.953125 C 3.484375 -0.953125 3.453125 -0.9375 3.40625 -0.828125 C 3.15625 -0.3125 2.515625 -0.3125 2.390625 -0.3125 C 1.296875 -0.3125 1.265625 -1.125 1.25 -1.453125 Z M 1.25 -1.734375 C 1.25 -2.015625 1.296875 -2.84375 2.1875 -2.84375 C 3.09375 -2.84375 3.140625 -2.046875 3.15625 -1.734375 Z M 1.25 -1.734375 "/>
</g>
<g id="glyph-4-4">
<path d="M 2.84375 -4.78125 L 2.84375 -4.390625 C 3.25 -4.390625 3.3125 -4.390625 3.3125 -4.125 L 3.3125 -2.84375 C 2.875 -3.109375 2.484375 -3.140625 2.265625 -3.140625 C 1.015625 -3.140625 0.328125 -2.421875 0.328125 -1.546875 C 0.328125 -0.671875 0.96875 0.046875 2.171875 0.046875 C 2.609375 0.046875 2.984375 -0.09375 3.265625 -0.296875 L 3.265625 0.046875 L 4.609375 0 L 4.609375 -0.390625 C 4.203125 -0.390625 4.140625 -0.390625 4.140625 -0.65625 L 4.140625 -4.84375 Z M 3.265625 -0.8125 C 3.09375 -0.578125 2.765625 -0.28125 2.25 -0.28125 C 1.296875 -0.28125 1.296875 -1.109375 1.296875 -1.53125 C 1.296875 -1.953125 1.296875 -2.8125 2.34375 -2.8125 C 2.921875 -2.8125 3.234375 -2.421875 3.265625 -2.390625 Z M 3.265625 -0.8125 "/>
</g>
<g id="glyph-4-5">
<path d="M 4 -2.578125 C 4.046875 -2.671875 4.046875 -2.6875 4.1875 -2.703125 C 4.28125 -2.703125 4.453125 -2.703125 4.5 -2.703125 L 4.5 -3.09375 C 4.28125 -3.078125 4.140625 -3.0625 3.921875 -3.0625 C 3.703125 -3.0625 3.4375 -3.078125 3.21875 -3.09375 L 3.21875 -2.703125 C 3.40625 -2.703125 3.453125 -2.6875 3.53125 -2.65625 L 2.59375 -0.828125 L 1.640625 -2.703125 L 1.96875 -2.703125 L 1.96875 -3.09375 C 1.671875 -3.078125 1.359375 -3.0625 1.0625 -3.0625 C 0.796875 -3.0625 0.515625 -3.078125 0.25 -3.09375 L 0.25 -2.703125 L 0.703125 -2.703125 L 2 -0.15625 C 2.09375 0.03125 2.171875 0.046875 2.375 0.046875 C 2.578125 0.046875 2.640625 0.03125 2.75 -0.15625 Z M 4 -2.578125 "/>
</g>
<g id="glyph-4-6">
<path d="M 1.828125 -4.265625 C 1.828125 -4.609375 1.546875 -4.84375 1.265625 -4.84375 C 0.921875 -4.84375 0.6875 -4.578125 0.6875 -4.28125 C 0.6875 -3.9375 0.96875 -3.703125 1.25 -3.703125 C 1.59375 -3.703125 1.828125 -3.984375 1.828125 -4.265625 Z M 0.484375 -3.078125 L 0.484375 -2.6875 C 0.890625 -2.6875 0.9375 -2.6875 0.9375 -2.421875 L 0.9375 -0.390625 L 0.46875 -0.390625 L 0.46875 0 C 0.484375 0 1.03125 -0.03125 1.34375 -0.03125 C 1.625 -0.03125 1.90625 -0.015625 2.1875 0 L 2.1875 -0.390625 L 1.765625 -0.390625 L 1.765625 -3.140625 Z M 0.484375 -3.078125 "/>
</g>
<g id="glyph-4-7">
<path d="M 5.78125 -2.578125 C 5.828125 -2.671875 5.828125 -2.671875 5.953125 -2.6875 C 6.0625 -2.703125 6.109375 -2.703125 6.25 -2.703125 L 6.25 -3.09375 C 6.0625 -3.078125 5.875 -3.0625 5.671875 -3.0625 C 5.4375 -3.0625 5.203125 -3.078125 4.953125 -3.09375 L 4.953125 -2.703125 C 5.15625 -2.703125 5.21875 -2.6875 5.328125 -2.65625 L 4.515625 -0.78125 L 3.671875 -2.703125 L 4.03125 -2.703125 L 4.03125 -3.09375 C 4 -3.09375 3.5 -3.0625 3.203125 -3.0625 C 3 -3.0625 2.703125 -3.078125 2.5 -3.09375 L 2.5 -2.703125 L 2.921875 -2.703125 C 3 -2.546875 3 -2.53125 3 -2.515625 C 3 -2.484375 2.96875 -2.4375 2.96875 -2.421875 L 2.328125 -0.953125 L 1.5625 -2.703125 L 1.921875 -2.703125 L 1.921875 -3.09375 C 1.609375 -3.078125 1.3125 -3.0625 1.015625 -3.0625 C 0.75 -3.0625 0.265625 -3.09375 0.234375 -3.09375 L 0.234375 -2.703125 L 0.640625 -2.703125 L 1.75 -0.140625 C 1.84375 0.046875 1.9375 0.046875 2.109375 0.046875 C 2.265625 0.046875 2.375 0.046875 2.453125 -0.140625 L 3.234375 -1.953125 L 4.015625 -0.15625 C 4.109375 0.046875 4.203125 0.046875 4.375 0.046875 C 4.53125 0.046875 4.640625 0.046875 4.71875 -0.140625 Z M 5.78125 -2.578125 "/>
</g>
<g id="glyph-5-0">
<path d="M 4.53125 -1.828125 L 4.296875 -1.828125 C 4.21875 -1.15625 4.125 -0.25 2.796875 -0.25 L 2.109375 -0.25 C 1.78125 -0.25 1.765625 -0.3125 1.765625 -0.515625 L 1.765625 -4.1875 C 1.765625 -4.421875 1.765625 -4.515625 2.421875 -4.515625 L 2.671875 -4.515625 L 2.671875 -4.765625 C 2.515625 -4.75 1.625 -4.734375 1.453125 -4.734375 C 1.1875 -4.734375 0.390625 -4.765625 0.390625 -4.765625 L 0.390625 -4.515625 L 0.5625 -4.515625 C 1.09375 -4.515625 1.109375 -4.4375 1.109375 -4.1875 L 1.109375 -0.5625 C 1.109375 -0.328125 1.09375 -0.25 0.5625 -0.25 L 0.390625 -0.25 L 0.390625 0 L 4.328125 0 Z M 4.53125 -1.828125 "/>
</g>
<g id="glyph-5-1">
<path d="M 5.078125 -1.828125 L 4.84375 -1.828125 C 4.65625 -0.78125 4.5 -0.25 3.203125 -0.25 L 2.109375 -0.25 C 1.78125 -0.25 1.765625 -0.3125 1.765625 -0.515625 L 1.765625 -2.328125 L 2.46875 -2.328125 C 3.171875 -2.328125 3.28125 -2.125 3.28125 -1.515625 L 3.515625 -1.515625 L 3.515625 -3.40625 L 3.28125 -3.40625 C 3.28125 -2.796875 3.171875 -2.578125 2.46875 -2.578125 L 1.765625 -2.578125 L 1.765625 -4.203125 C 1.765625 -4.421875 1.78125 -4.484375 2.109375 -4.484375 L 3.15625 -4.484375 C 4.296875 -4.484375 4.5 -4.109375 4.625 -3.125 L 4.859375 -3.125 L 4.640625 -4.734375 L 0.390625 -4.734375 L 0.390625 -4.484375 L 0.5625 -4.484375 C 1.09375 -4.484375 1.109375 -4.40625 1.109375 -4.171875 L 1.109375 -0.5625 C 1.109375 -0.328125 1.09375 -0.25 0.5625 -0.25 L 0.390625 -0.25 L 0.390625 0 L 4.765625 0 Z M 5.078125 -1.828125 "/>
</g>
<g id="glyph-5-2">
<path d="M 5.1875 -4.703125 L 0.484375 -4.703125 L 0.328125 -3.109375 L 0.578125 -3.109375 C 0.671875 -4.3125 0.875 -4.453125 1.9375 -4.453125 C 2.078125 -4.453125 2.28125 -4.453125 2.359375 -4.453125 C 2.515625 -4.421875 2.515625 -4.34375 2.515625 -4.1875 L 2.515625 -0.578125 C 2.515625 -0.34375 2.515625 -0.25 1.78125 -0.25 L 1.484375 -0.25 L 1.484375 0 C 1.828125 -0.03125 2.484375 -0.03125 2.84375 -0.03125 C 3.203125 -0.03125 3.84375 -0.03125 4.1875 0 L 4.1875 -0.25 L 3.890625 -0.25 C 3.171875 -0.25 3.171875 -0.34375 3.171875 -0.578125 L 3.171875 -4.1875 C 3.171875 -4.34375 3.171875 -4.421875 3.328125 -4.453125 C 3.390625 -4.453125 3.59375 -4.453125 3.734375 -4.453125 C 4.125 -4.453125 4.421875 -4.453125 4.671875 -4.328125 C 4.984375 -4.125 5.03125 -3.6875 5.03125 -3.65625 L 5.09375 -3.109375 L 5.34375 -3.109375 Z M 5.1875 -4.703125 "/>
</g>
</g>
</defs>
<path fill-rule="nonzero" fill="rgb(91.999817%, 91.999817%, 100%)" fill-opacity="1" d="M 205.511719 69.570312 C 127.234375 69.570312 63.777344 133.027344 63.777344 211.304688 C 63.777344 289.582031 127.234375 353.039062 205.511719 353.039062 L 347.246094 353.039062 L 347.246094 69.570312 Z M 205.511719 69.570312 "/>
<path fill="none" stroke-width="1.49442" stroke-linecap="butt" stroke-linejoin="miter" stroke="rgb(0%, 0%, 69.999695%)" stroke-opacity="1" stroke-dasharray="2.98883 2.98883" stroke-miterlimit="10" d="M 233.860719 481.895688 C 155.583375 481.895688 92.126344 418.438656 92.126344 340.161313 C 92.126344 261.883969 155.583375 198.426938 233.860719 198.426938 " transform="matrix(1, 0, 0, -1, -28.349, 551.466)"/>
<path fill="none" stroke-width="1.49442" stroke-linecap="butt" stroke-linejoin="miter" stroke="rgb(0%, 0%, 69.999695%)" stroke-opacity="1" stroke-dasharray="2.98883 2.98883" stroke-miterlimit="10" d="M 233.860719 481.895688 L 375.595094 481.895688 " transform="matrix(1, 0, 0, -1, -28.349, 551.466)"/>
<path fill="none" stroke-width="1.49442" stroke-linecap="butt" stroke-linejoin="miter" stroke="rgb(0%, 0%, 69.999695%)" stroke-opacity="1" stroke-dasharray="2.98883 2.98883" stroke-miterlimit="10" d="M 233.860719 198.426938 L 375.595094 198.426938 " transform="matrix(1, 0, 0, -1, -28.349, 551.466)"/>
<path fill="none" stroke-width="0.99628" stroke-linecap="butt" stroke-linejoin="miter" stroke="rgb(69.999695%, 69.999695%, 69.999695%)" stroke-opacity="1" stroke-dasharray="2.98883 2.98883" stroke-miterlimit="10" d="M 375.595094 198.426938 L 375.595094 481.895688 " transform="matrix(1, 0, 0, -1, -28.349, 551.466)"/>
<path fill="none" stroke-width="0.99628" stroke-linecap="butt" stroke-linejoin="miter" stroke="rgb(0%, 0%, 69.999695%)" stroke-opacity="1" stroke-miterlimit="10" d="M 208.349 481.895688 L 229.227906 481.895688 " transform="matrix(1, 0, 0, -1, -28.349, 551.466)"/>
<path fill-rule="nonzero" fill="rgb(0%, 0%, 69.999695%)" fill-opacity="1" stroke-width="0.99628" stroke-linecap="butt" stroke-linejoin="miter" stroke="rgb(0%, 0%, 69.999695%)" stroke-opacity="1" stroke-miterlimit="10" d="M 6.05367 -0.0000825 L 1.608357 1.683511 L 3.088826 -0.0000825 L 1.608357 -1.683676 Z M 6.05367 -0.0000825 " transform="matrix(1, 0, 0, -1, 198.04008, 69.57023)"/>
<path fill="none" stroke-width="0.99628" stroke-linecap="butt" stroke-linejoin="miter" stroke="rgb(0%, 0%, 69.999695%)" stroke-opacity="1" stroke-miterlimit="10" d="M 137.481812 462.907406 L 158.360719 462.907406 " transform="matrix(1, 0, 0, -1, -28.349, 551.466)"/>
<path fill-rule="nonzero" fill="rgb(0%, 0%, 69.999695%)" fill-opacity="1" stroke-width="0.99628" stroke-linecap="butt" stroke-linejoin="miter" stroke="rgb(0%, 0%, 69.999695%)" stroke-opacity="1" stroke-miterlimit="10" d="M 6.053502 0.00007625 L 1.60819 1.68367 L 3.088659 0.00007625 L 1.60819 -1.683517 Z M 6.053502 0.00007625 " transform="matrix(1, 0, 0, -1, 127.17306, 88.55867)"/>
<path fill="none" stroke-width="0.99628" stroke-linecap="butt" stroke-linejoin="miter" stroke="rgb(0%, 0%, 69.999695%)" stroke-opacity="1" stroke-miterlimit="10" d="M 85.602906 411.0285 L 106.481813 411.0285 " transform="matrix(1, 0, 0, -1, -28.349, 551.466)"/>
<path fill-rule="nonzero" fill="rgb(0%, 0%, 69.999695%)" fill-opacity="1" stroke-width="0.99628" stroke-linecap="butt" stroke-linejoin="miter" stroke="rgb(0%, 0%, 69.999695%)" stroke-opacity="1" stroke-miterlimit="10" d="M 6.053196 -0.00023 L 1.607884 1.683364 L 3.088352 -0.00023 L 1.607884 -1.683824 Z M 6.053196 -0.00023 " transform="matrix(1, 0, 0, -1, 75.29446, 140.43727)"/>
<path fill="none" stroke-width="0.99628" stroke-linecap="butt" stroke-linejoin="miter" stroke="rgb(0%, 0%, 69.999695%)" stroke-opacity="1" stroke-miterlimit="10" d="M 66.614625 340.161313 L 87.493531 340.161313 " transform="matrix(1, 0, 0, -1, -28.349, 551.466)"/>
<path fill-rule="nonzero" fill="rgb(0%, 0%, 69.999695%)" fill-opacity="1" stroke-width="0.99628" stroke-linecap="butt" stroke-linejoin="miter" stroke="rgb(0%, 0%, 69.999695%)" stroke-opacity="1" stroke-miterlimit="10" d="M 6.053345 -0.0003975 L 1.608033 1.683196 L 3.088501 -0.0003975 L 1.608033 -1.683991 Z M 6.053345 -0.0003975 " transform="matrix(1, 0, 0, -1, 56.30603, 211.30429)"/>
<path fill="none" stroke-width="0.99628" stroke-linecap="butt" stroke-linejoin="miter" stroke="rgb(0%, 0%, 69.999695%)" stroke-opacity="1" stroke-miterlimit="10" d="M 85.602906 269.294125 L 106.481813 269.294125 " transform="matrix(1, 0, 0, -1, -28.349, 551.466)"/>
<path fill-rule="nonzero" fill="rgb(0%, 0%, 69.999695%)" fill-opacity="1" stroke-width="0.99628" stroke-linecap="butt" stroke-linejoin="miter" stroke="rgb(0%, 0%, 69.999695%)" stroke-opacity="1" stroke-miterlimit="10" d="M 6.053196 -0.000555 L 1.607884 1.683039 L 3.088352 -0.000555 L 1.607884 -1.684149 Z M 6.053196 -0.000555 " transform="matrix(1, 0, 0, -1, 75.29446, 282.17132)"/>
<path fill="none" stroke-width="0.99628" stroke-linecap="butt" stroke-linejoin="miter" stroke="rgb(0%, 0%, 69.999695%)" stroke-opacity="1" stroke-miterlimit="10" d="M 137.481812 217.415219 L 158.360719 217.415219 " transform="matrix(1, 0, 0, -1, -28.349, 551.466)"/>
<path fill-rule="nonzero" fill="rgb(0%, 0%, 69.999695%)" fill-opacity="1" stroke-width="0.99628" stroke-linecap="butt" stroke-linejoin="miter" stroke="rgb(0%, 0%, 69.999695%)" stroke-opacity="1" stroke-miterlimit="10" d="M 6.053502 -0.00086125 L 1.60819 1.682733 L 3.088659 -0.00086125 L 1.60819 -1.684455 Z M 6.053502 -0.00086125 " transform="matrix(1, 0, 0, -1, 127.17306, 334.04992)"/>
<path fill="none" stroke-width="0.99628" stroke-linecap="butt" stroke-linejoin="miter" stroke="rgb(0%, 0%, 69.999695%)" stroke-opacity="1" stroke-miterlimit="10" d="M 208.349 198.426938 L 229.227906 198.426938 " transform="matrix(1, 0, 0, -1, -28.349, 551.466)"/>
<path fill-rule="nonzero" fill="rgb(0%, 0%, 69.999695%)" fill-opacity="1" stroke-width="0.99628" stroke-linecap="butt" stroke-linejoin="miter" stroke="rgb(0%, 0%, 69.999695%)" stroke-opacity="1" stroke-miterlimit="10" d="M 6.05367 -0.0007225 L 1.608357 1.682871 L 3.088826 -0.0007225 L 1.608357 -1.684316 Z M 6.05367 -0.0007225 " transform="matrix(1, 0, 0, -1, 198.04008, 353.03834)"/>
<path fill="none" stroke-width="0.3985" stroke-linecap="butt" stroke-linejoin="miter" stroke="rgb(0%, 0%, 0%)" stroke-opacity="1" stroke-miterlimit="10" d="M 233.009156 340.161313 L 238.681031 340.161313 " transform="matrix(1, 0, 0, -1, -28.349, 551.466)"/>
<path fill="none" stroke-width="0.99628" stroke-linecap="butt" stroke-linejoin="miter" stroke="rgb(59.999084%, 0%, 0%)" stroke-opacity="1" stroke-miterlimit="10" d="M 224.790406 328.255063 L 224.790406 352.067563 L 248.602906 352.067563 L 248.602906 328.255063 Z M 224.790406 328.255063 " transform="matrix(1, 0, 0, -1, -28.349, 551.466)"/>
<g fill="rgb(0%, 0%, 69.999695%)" fill-opacity="1">
<use xlink:href="#glyph-0-0" x="11.291" y="214.422"/>
<use xlink:href="#glyph-0-1" x="15.292704" y="214.422"/>
<use xlink:href="#glyph-0-2" x="21.187216" y="214.422"/>
<use xlink:href="#glyph-0-3" x="24.134471" y="214.422"/>
<use xlink:href="#glyph-0-4" x="29.003227" y="214.422"/>
</g>
<g fill="rgb(29.998779%, 29.998779%, 29.998779%)" fill-opacity="1">
<use xlink:href="#glyph-0-5" x="353.795" y="214.422"/>
<use xlink:href="#glyph-0-6" x="361.765233" y="214.422"/>
<use xlink:href="#glyph-0-4" x="367.659744" y="214.422"/>
<use xlink:href="#glyph-0-2" x="371.786082" y="214.422"/>
<use xlink:href="#glyph-0-3" x="374.733337" y="214.422"/>
<use xlink:href="#glyph-0-4" x="379.602092" y="214.422"/>
</g>
<g fill="rgb(69.999695%, 0%, 0%)" fill-opacity="1">
<use xlink:href="#glyph-1-0" x="223.968" y="195.684"/>
<use xlink:href="#glyph-1-1" x="228.575833" y="195.684"/>
<use xlink:href="#glyph-1-2" x="231.13574" y="195.684"/>
<use xlink:href="#glyph-1-3" x="234.740233" y="195.684"/>
<use xlink:href="#glyph-1-4" x="237.555683" y="195.684"/>
<use xlink:href="#glyph-1-1" x="242.163516" y="195.684"/>
<use xlink:href="#glyph-1-5" x="244.723423" y="195.684"/>
</g>
<path fill="none" stroke-width="0.3985" stroke-linecap="butt" stroke-linejoin="miter" stroke="rgb(0%, 0%, 0%)" stroke-opacity="1" stroke-miterlimit="10" d="M 95.19275 507.407406 L 230.798219 507.407406 " transform="matrix(1, 0, 0, -1, -28.349, 551.466)"/>
<path fill-rule="nonzero" fill="rgb(0%, 0%, 0%)" fill-opacity="1" stroke-width="0.3985" stroke-linecap="butt" stroke-linejoin="miter" stroke="rgb(0%, 0%, 0%)" stroke-opacity="1" stroke-miterlimit="10" d="M 4.21646 0.00029375 L 0.642241 1.344044 L 1.818023 0.00029375 L 0.642241 -1.347363 Z M 4.21646 0.00029375 " transform="matrix(-1, 0, 0, 1, 68.56021, 44.0583)"/>
<path fill-rule="nonzero" fill="rgb(0%, 0%, 0%)" fill-opacity="1" stroke-width="0.3985" stroke-linecap="butt" stroke-linejoin="miter" stroke="rgb(0%, 0%, 0%)" stroke-opacity="1" stroke-miterlimit="10" d="M 4.215253 -0.00029375 L 0.64494 1.347363 L 1.816815 -0.00029375 L 0.64494 -1.344044 Z M 4.215253 -0.00029375 " transform="matrix(1, 0, 0, -1, 200.73006, 44.0583)"/>
<g fill="rgb(0%, 0%, 0%)" fill-opacity="1">
<use xlink:href="#glyph-1-6" x="125.736" y="40.545"/>
<use xlink:href="#glyph-1-7" x="130.343833" y="40.545"/>
<use xlink:href="#glyph-1-7" x="134.951666" y="40.545"/>
</g>
<g fill="rgb(0%, 0%, 0%)" fill-opacity="1">
<use xlink:href="#glyph-2-0" x="139.559499" y="40.545"/>
</g>
<path fill="none" stroke-width="0.3985" stroke-linecap="butt" stroke-linejoin="miter" stroke="rgb(75%, 75%, 75%)" stroke-opacity="1" stroke-dasharray="2.98883 2.98883" stroke-miterlimit="10" d="M 92.126344 340.161313 L 92.126344 511.661313 " transform="matrix(1, 0, 0, -1, -28.349, 551.466)"/>
<path fill="none" stroke-width="0.3985" stroke-linecap="butt" stroke-linejoin="miter" stroke="rgb(75%, 75%, 75%)" stroke-opacity="1" stroke-dasharray="2.98883 2.98883" stroke-miterlimit="10" d="M 233.860719 483.313656 L 233.860719 511.661313 " transform="matrix(1, 0, 0, -1, -28.349, 551.466)"/>
<path fill="none" stroke-width="0.3985" stroke-linecap="butt" stroke-linejoin="miter" stroke="rgb(0%, 0%, 0%)" stroke-opacity="1" stroke-miterlimit="10" d="M 236.923219 507.407406 L 372.532594 507.407406 " transform="matrix(1, 0, 0, -1, -28.349, 551.466)"/>
<path fill-rule="nonzero" fill="rgb(0%, 0%, 0%)" fill-opacity="1" stroke-width="0.3985" stroke-linecap="butt" stroke-linejoin="miter" stroke="rgb(0%, 0%, 0%)" stroke-opacity="1" stroke-miterlimit="10" d="M 4.216135 0.00029375 L 0.641916 1.344044 L 1.817697 0.00029375 L 0.641916 -1.347363 Z M 4.216135 0.00029375 " transform="matrix(-1, 0, 0, 1, 210.29426, 44.0583)"/>
<path fill-rule="nonzero" fill="rgb(0%, 0%, 0%)" fill-opacity="1" stroke-width="0.3985" stroke-linecap="butt" stroke-linejoin="miter" stroke="rgb(0%, 0%, 0%)" stroke-opacity="1" stroke-miterlimit="10" d="M 4.215578 -0.00029375 L 0.645265 1.347363 L 1.81714 -0.00029375 L 0.645265 -1.344044 Z M 4.215578 -0.00029375 " transform="matrix(1, 0, 0, -1, 342.46411, 44.0583)"/>
<g fill="rgb(0%, 0%, 0%)" fill-opacity="1">
<use xlink:href="#glyph-1-6" x="267.469" y="40.545"/>
<use xlink:href="#glyph-1-7" x="272.076833" y="40.545"/>
<use xlink:href="#glyph-1-7" x="276.684666" y="40.545"/>
</g>
<g fill="rgb(0%, 0%, 0%)" fill-opacity="1">
<use xlink:href="#glyph-2-0" x="281.292499" y="40.545"/>
</g>
<path fill="none" stroke-width="0.3985" stroke-linecap="butt" stroke-linejoin="miter" stroke="rgb(75%, 75%, 75%)" stroke-opacity="1" stroke-dasharray="2.98883 2.98883" stroke-miterlimit="10" d="M 375.595094 483.313656 L 375.595094 511.661313 " transform="matrix(1, 0, 0, -1, -28.349, 551.466)"/>
<g fill="rgb(0%, 0%, 0%)" fill-opacity="1">
<use xlink:href="#glyph-3-0" x="160.789" y="18.209"/>
<use xlink:href="#glyph-3-1" x="169.063936" y="18.209"/>
<use xlink:href="#glyph-3-2" x="174.792431" y="18.209"/>
<use xlink:href="#glyph-3-3" x="184.33959" y="18.209"/>
<use xlink:href="#glyph-3-4" x="190.704695" y="18.209"/>
<use xlink:href="#glyph-3-5" x="197.0698" y="18.209"/>
<use xlink:href="#glyph-3-6" x="201.525075" y="18.209"/>
<use xlink:href="#glyph-3-5" x="207.094169" y="18.209"/>
<use xlink:href="#glyph-3-7" x="211.549443" y="18.209"/>
<use xlink:href="#glyph-3-1" x="214.731498" y="18.209"/>
<use xlink:href="#glyph-3-8" x="220.459993" y="18.209"/>
<use xlink:href="#glyph-3-6" x="226.825098" y="18.209"/>
<use xlink:href="#glyph-3-9" x="232.394191" y="18.209"/>
</g>
<g fill="rgb(0%, 0%, 0%)" fill-opacity="1">
<use xlink:href="#glyph-3-10" x="239.391921" y="18.209"/>
<use xlink:href="#glyph-3-1" x="248.177938" y="18.209"/>
<use xlink:href="#glyph-3-2" x="253.906433" y="18.209"/>
<use xlink:href="#glyph-3-6" x="263.453593" y="18.209"/>
</g>
<g fill="rgb(0%, 0%, 0%)" fill-opacity="1">
<use xlink:href="#glyph-3-7" x="269.032649" y="18.209"/>
<use xlink:href="#glyph-3-8" x="272.214703" y="18.209"/>
</g>
<path fill="none" stroke-width="0.3985" stroke-linecap="butt" stroke-linejoin="miter" stroke="rgb(50%, 0%, 0%)" stroke-opacity="1" stroke-miterlimit="10" d="M 224.790406 328.255063 L 64.915406 108.001156 " transform="matrix(1, 0, 0, -1, -28.349, 551.466)"/>
<path fill="none" stroke-width="0.3985" stroke-linecap="butt" stroke-linejoin="miter" stroke="rgb(50%, 0%, 0%)" stroke-opacity="1" stroke-miterlimit="10" d="M 248.602906 328.255063 L 402.809937 108.001156 " transform="matrix(1, 0, 0, -1, -28.349, 551.466)"/>
<path fill-rule="nonzero" fill="rgb(94.999695%, 94.999695%, 100%)" fill-opacity="1" stroke-width="1.49442" stroke-linecap="butt" stroke-linejoin="miter" stroke="rgb(59.999084%, 0%, 0%)" stroke-opacity="1" stroke-miterlimit="10" d="M 64.915406 19.55975 L 64.915406 108.001156 L 402.809937 108.001156 L 402.809937 19.55975 Z M 64.915406 19.55975 " transform="matrix(1, 0, 0, -1, -28.349, 551.466)"/>
<g fill="rgb(59.999084%, 0%, 0%)" fill-opacity="1">
<use xlink:href="#glyph-4-0" x="39.018" y="451.84"/>
<use xlink:href="#glyph-4-1" x="44.52242" y="451.84"/>
</g>
<g fill="rgb(59.999084%, 0%, 0%)" fill-opacity="1">
<use xlink:href="#glyph-4-1" x="49.286921" y="451.84"/>
<use xlink:href="#glyph-4-2" x="53.800364" y="451.84"/>
<use xlink:href="#glyph-4-3" x="61.286041" y="451.84"/>
<use xlink:href="#glyph-4-4" x="65.41732" y="451.84"/>
</g>
<g fill="rgb(59.999084%, 0%, 0%)" fill-opacity="1">
<use xlink:href="#glyph-4-5" x="73.45323" y="451.84"/>
<use xlink:href="#glyph-4-6" x="78.214243" y="451.84"/>
<use xlink:href="#glyph-4-3" x="80.74643" y="451.84"/>
<use xlink:href="#glyph-4-7" x="84.877709" y="451.84"/>
</g>
<path fill-rule="nonzero" fill="rgb(100%, 100%, 100%)" fill-opacity="1" d="M 347.246094 488.820312 C 347.246094 488.820312 347.417969 488.800781 347.171875 488.824219 C 346.929688 488.851562 344.800781 489.074219 344.316406 489.121094 C 343.832031 489.171875 341.847656 489.378906 341.355469 489.429688 C 340.863281 489.480469 338.90625 489.675781 338.414062 489.726562 C 337.921875 489.777344 335.945312 489.976562 335.453125 490.027344 C 334.960938 490.078125 332.996094 490.28125 332.503906 490.332031 C 332.015625 490.382812 330.046875 490.589844 329.558594 490.640625 C 329.066406 490.695312 327.101562 490.898438 326.609375 490.953125 C 326.117188 491.003906 324.152344 491.210938 323.660156 491.261719 C 323.171875 491.316406 321.191406 491.546875 320.714844 491.578125 C 320.238281 491.605469 318.667969 491.585938 317.929688 491.613281 C 317.195312 491.644531 312.621094 491.894531 311.871094 491.941406 C 311.121094 491.984375 309.410156 492.117188 308.921875 492.152344 C 308.429688 492.1875 306.464844 492.335938 305.972656 492.371094 C 305.484375 492.410156 303.515625 492.558594 303.023438 492.597656 C 302.535156 492.636719 300.566406 492.789062 300.078125 492.828125 C 299.585938 492.867188 297.621094 493.027344 297.128906 493.070312 C 296.636719 493.109375 294.671875 493.273438 294.179688 493.316406 C 293.691406 493.355469 291.675781 493.46875 291.234375 493.566406 C 290.789062 493.660156 289.351562 494.347656 288.859375 494.445312 C 288.371094 494.546875 285.875 494.714844 285.335938 494.761719 C 284.796875 494.804688 282.878906 494.949219 282.390625 494.988281 C 281.898438 495.027344 279.929688 495.175781 279.441406 495.214844 C 278.949219 495.253906 276.980469 495.378906 276.492188 495.441406 C 276.003906 495.503906 274.0625 495.886719 273.574219 495.953125 C 273.082031 496.015625 271.089844 496.171875 270.597656 496.210938 C 270.101562 496.253906 268.140625 496.398438 267.648438 496.4375 C 267.15625 496.480469 265.191406 496.667969 264.699219 496.710938 C 264.210938 496.757812 262.242188 496.925781 261.753906 496.984375 C 261.261719 497.042969 259.324219 497.359375 258.832031 497.421875 C 258.339844 497.480469 256.347656 497.664062 255.855469 497.710938 C 255.363281 497.757812 253.398438 497.933594 252.90625 497.980469 C 252.417969 498.03125 250.449219 498.246094 249.960938 498.300781 C 249.46875 498.351562 247.496094 498.566406 247.011719 498.617188 C 246.53125 498.667969 244.652344 498.855469 244.160156 498.902344 C 243.667969 498.953125 241.613281 499.152344 241.117188 499.207031 C 240.617188 499.257812 238.660156 499.46875 238.167969 499.523438 C 237.675781 499.578125 235.710938 499.789062 235.21875 499.839844 C 234.730469 499.894531 232.699219 500.117188 232.273438 500.160156 C 231.84375 500.199219 230.59375 500.296875 230.101562 500.335938 C 229.613281 500.378906 226.929688 500.605469 226.375 500.65625 C 225.820312 500.710938 223.917969 500.917969 223.425781 500.972656 C 222.9375 501.03125 220.96875 501.28125 220.480469 501.335938 C 219.988281 501.394531 217.949219 501.613281 217.53125 501.65625 C 217.113281 501.695312 215.96875 501.785156 215.480469 501.828125 C 214.988281 501.871094 212.199219 502.097656 211.636719 502.152344 C 211.070312 502.210938 209.179688 502.460938 208.6875 502.515625 C 208.195312 502.574219 206.230469 502.78125 205.738281 502.835938 C 205.25 502.886719 203.222656 503.109375 202.792969 503.152344 C 202.359375 503.191406 201.039062 503.285156 200.546875 503.328125 C 200.058594 503.367188 197.445312 503.597656 196.894531 503.652344 C 196.34375 503.703125 194.4375 503.914062 193.945312 503.96875 C 193.457031 504.019531 191.488281 504.234375 191 504.285156 C 190.507812 504.339844 188.5 504.5625 188.050781 504.601562 C 187.601562 504.644531 186.089844 504.734375 185.597656 504.769531 C 185.109375 504.808594 182.6875 505.007812 182.152344 505.054688 C 181.621094 505.105469 179.695312 505.335938 179.207031 505.375 C 178.714844 505.410156 176.75 505.46875 176.257812 505.511719 C 175.765625 505.550781 173.753906 505.832031 173.308594 505.875 C 172.867188 505.914062 171.414062 505.980469 170.921875 506.007812 C 170.433594 506.039062 167.953125 506.203125 167.414062 506.234375 C 166.875 506.269531 164.957031 506.390625 164.464844 506.417969 C 163.976562 506.445312 162.007812 506.53125 161.519531 506.554688 C 161.027344 506.574219 158.964844 506.664062 158.570312 506.6875 C 158.175781 506.714844 157.273438 506.824219 156.78125 506.847656 C 156.289062 506.871094 153.261719 506.945312 152.671875 506.960938 C 152.085938 506.976562 150.214844 507.039062 149.726562 507.050781 C 149.234375 507.0625 147.183594 507.089844 146.777344 507.097656 C 146.371094 507.105469 145.132812 507.140625 144.851562 507.144531 C 144.574219 507.148438 143.742188 507.148438 143.410156 507.148438 C 143.078125 507.148438 141.117188 507.144531 140.882812 507.144531 C 140.644531 507.140625 140.808594 507.132812 140.5625 507.125 C 140.320312 507.117188 138.398438 507.066406 137.933594 507.050781 C 137.46875 507.039062 135.476562 506.980469 134.984375 506.960938 C 134.496094 506.941406 132.527344 506.847656 132.039062 506.824219 C 131.546875 506.804688 129.5 506.710938 129.089844 506.6875 C 128.675781 506.667969 127.585938 506.582031 127.09375 506.558594 C 126.601562 506.535156 123.761719 506.441406 123.191406 506.417969 C 122.621094 506.394531 120.734375 506.320312 120.246094 506.28125 C 119.753906 506.242188 117.789062 506.003906 117.296875 505.964844 C 116.804688 505.921875 114.820312 505.820312 114.347656 505.78125 C 113.878906 505.746094 112.121094 505.554688 111.628906 505.515625 C 111.140625 505.476562 108.960938 505.371094 108.453125 505.328125 C 107.941406 505.285156 105.996094 505.066406 105.503906 505.011719 C 105.015625 504.953125 103.046875 504.707031 102.554688 504.648438 C 102.066406 504.589844 100.089844 504.351562 99.609375 504.285156 C 99.125 504.21875 97.257812 503.902344 96.765625 503.847656 C 96.273438 503.789062 94.210938 503.660156 93.710938 503.605469 C 93.210938 503.550781 91.253906 503.265625 90.765625 503.195312 C 90.273438 503.128906 88.308594 502.855469 87.816406 502.789062 C 87.324219 502.722656 85.335938 502.457031 84.867188 502.378906 C 84.402344 502.304688 82.707031 501.949219 82.214844 501.863281 C 81.722656 501.78125 79.488281 501.460938 78.972656 501.382812 C 78.457031 501.304688 76.515625 501.007812 76.023438 500.929688 C 75.535156 500.851562 73.566406 500.507812 73.074219 500.429688 C 72.585938 500.355469 70.589844 500.101562 70.128906 500.023438 C 69.664062 499.941406 68.011719 499.550781 67.523438 499.453125 C 67.03125 499.355469 64.75 498.953125 64.230469 498.84375 C 63.710938 498.730469 61.773438 498.265625 61.285156 498.117188 C 60.792969 497.96875 58.820312 497.289062 58.335938 497.074219 C 57.847656 496.863281 55.8125 495.785156 55.445312 495.558594 C 55.074219 495.332031 54.113281 494.5625 53.914062 494.351562 C 53.710938 494.144531 53.140625 493.292969 53.027344 493.046875 C 52.917969 492.800781 52.632812 491.605469 52.585938 491.386719 C 52.539062 491.171875 52.480469 490.652344 52.46875 490.4375 C 52.457031 490.222656 52.441406 489.089844 52.441406 488.820312 C 52.441406 488.550781 52.457031 487.414062 52.46875 487.199219 C 52.480469 486.988281 52.539062 486.46875 52.585938 486.25 C 52.632812 486.035156 52.917969 484.839844 53.027344 484.59375 C 53.140625 484.347656 53.710938 483.507812 53.914062 483.285156 C 54.117188 483.066406 55.085938 482.25 55.46875 481.929688 C 55.851562 481.609375 57.992188 479.804688 58.5 479.441406 C 59.007812 479.078125 61.0625 477.84375 61.550781 477.5625 C 62.039062 477.285156 63.882812 476.316406 64.378906 476.082031 C 64.875 475.84375 67.007812 474.941406 67.503906 474.738281 C 68.003906 474.53125 69.894531 473.8125 70.363281 473.632812 C 70.832031 473.457031 72.652344 472.789062 73.144531 472.613281 C 73.632812 472.4375 75.757812 471.691406 76.257812 471.523438 C 76.753906 471.351562 78.625 470.730469 79.128906 470.574219 C 79.628906 470.414062 81.730469 469.769531 82.277344 469.613281 C 82.824219 469.453125 85.117188 468.828125 85.714844 468.675781 C 86.3125 468.523438 88.816406 467.917969 89.46875 467.769531 C 90.121094 467.621094 92.839844 467.027344 93.546875 466.878906 C 94.253906 466.730469 97.195312 466.125 97.957031 465.976562 C 98.722656 465.828125 101.890625 465.242188 102.710938 465.097656 C 103.535156 464.957031 106.945312 464.394531 107.824219 464.257812 C 108.707031 464.121094 112.359375 463.578125 113.300781 463.449219 C 114.242188 463.320312 118.136719 462.820312 119.140625 462.699219 C 120.140625 462.582031 124.269531 462.121094 125.332031 462.011719 C 126.390625 461.902344 130.753906 461.480469 131.871094 461.382812 C 132.992188 461.285156 137.585938 460.914062 138.753906 460.828125 C 139.925781 460.742188 144.726562 460.421875 145.945312 460.351562 C 147.167969 460.28125 152.164062 460.023438 153.433594 459.972656 C 154.699219 459.917969 159.871094 459.753906 161.179688 459.722656 C 162.484375 459.695312 168.34375 459.636719 169.144531 459.628906 C 169.941406 459.621094 170.082031 459.625 170.757812 459.628906 C 171.4375 459.636719 176.054688 459.6875 177.289062 459.71875 C 178.519531 459.75 184.183594 459.933594 185.566406 459.992188 C 186.953125 460.054688 192.535156 460.367188 193.929688 460.457031 C 195.324219 460.546875 200.925781 460.957031 202.320312 461.074219 C 203.714844 461.1875 209.304688 461.699219 210.695312 461.839844 C 212.082031 461.976562 217.621094 462.574219 218.992188 462.734375 C 220.367188 462.894531 225.824219 463.574219 227.171875 463.753906 C 228.519531 463.929688 233.863281 464.683594 235.179688 464.878906 C 236.496094 465.074219 241.703125 465.882812 242.980469 466.089844 C 244.257812 466.296875 249.296875 467.148438 250.53125 467.363281 C 251.761719 467.582031 256.613281 468.464844 257.796875 468.6875 C 258.980469 468.910156 263.628906 469.808594 264.761719 470.035156 C 265.890625 470.257812 270.316406 471.160156 271.390625 471.382812 C 272.464844 471.605469 276.664062 472.5 277.679688 472.722656 C 278.699219 472.941406 282.65625 473.820312 283.617188 474.035156 C 284.574219 474.246094 288.296875 475.089844 289.199219 475.292969 C 290.097656 475.496094 293.582031 476.296875 294.425781 476.492188 C 295.265625 476.6875 298.515625 477.445312 299.300781 477.625 C 300.082031 477.808594 303.101562 478.507812 303.832031 478.675781 C 304.558594 478.847656 307.359375 479.5 308.03125 479.65625 C 308.703125 479.8125 311.289062 480.414062 311.910156 480.558594 C 312.53125 480.703125 314.914062 481.261719 315.484375 481.394531 C 316.054688 481.527344 318.246094 482.035156 318.769531 482.15625 C 319.292969 482.28125 321.296875 482.746094 321.777344 482.859375 C 322.257812 482.96875 324.089844 483.394531 324.527344 483.496094 C 324.96875 483.597656 326.640625 483.988281 327.039062 484.078125 C 327.441406 484.171875 328.960938 484.527344 329.324219 484.609375 C 329.6875 484.695312 331.078125 485.019531 331.410156 485.09375 C 331.738281 485.171875 332.996094 485.457031 333.296875 485.523438 C 333.597656 485.589844 334.738281 485.84375 335.011719 485.902344 C 335.285156 485.964844 336.320312 486.195312 336.566406 486.25 C 336.8125 486.308594 337.746094 486.519531 337.96875 486.570312 C 338.191406 486.625 339.035156 486.824219 339.234375 486.871094 C 339.4375 486.921875 340.199219 487.105469 340.378906 487.148438 C 340.5625 487.191406 341.25 487.355469 341.414062 487.398438 C 341.574219 487.4375 342.195312 487.585938 342.34375 487.625 C 342.488281 487.660156 343.046875 487.796875 343.179688 487.828125 C 343.3125 487.859375 343.808594 487.984375 343.929688 488.011719 C 344.046875 488.042969 344.503906 488.152344 344.609375 488.179688 C 344.71875 488.203125 345.125 488.304688 345.21875 488.328125 C 345.316406 488.351562 345.679688 488.4375 345.765625 488.460938 C 345.851562 488.480469 346.183594 488.558594 346.257812 488.578125 C 346.335938 488.597656 346.636719 488.671875 346.703125 488.6875 C 346.765625 488.703125 346.980469 488.753906 347.023438 488.765625 C 347.070312 488.777344 347.246094 488.820312 347.246094 488.820312 Z M 347.246094 488.820312 "/>
<path fill="none" stroke-width="0.99628" stroke-linecap="butt" stroke-linejoin="miter" stroke="rgb(0%, 0%, 0%)" stroke-opacity="1" stroke-dasharray="2.98883 2.98883" stroke-miterlimit="10" d="M 375.595094 62.645688 C 375.595094 62.645688 375.766969 62.665219 375.520875 62.641781 C 375.278687 62.614438 373.149781 62.391781 372.665406 62.344906 C 372.181031 62.294125 370.196656 62.087094 369.704469 62.036313 C 369.212281 61.985531 367.25525 61.790219 366.763062 61.739438 C 366.270875 61.688656 364.294312 61.489438 363.802125 61.438656 C 363.309937 61.387875 361.345094 61.18475 360.852906 61.133969 C 360.364625 61.083188 358.395875 60.876156 357.907594 60.825375 C 357.415406 60.770688 355.450562 60.567563 354.958375 60.512875 C 354.466187 60.462094 352.501344 60.255063 352.009156 60.204281 C 351.520875 60.149594 349.540406 59.919125 349.063844 59.887875 C 348.587281 59.860531 347.016969 59.880063 346.278687 59.852719 C 345.544312 59.821469 340.970094 59.571469 340.220094 59.524594 C 339.470094 59.481625 337.759156 59.348813 337.270875 59.313656 C 336.778687 59.2785 334.813844 59.130063 334.321656 59.094906 C 333.833375 59.055844 331.864625 58.907406 331.372437 58.868344 C 330.884156 58.829281 328.915406 58.676938 328.427125 58.637875 C 327.934937 58.598813 325.970094 58.438656 325.477906 58.395688 C 324.985719 58.356625 323.020875 58.192563 322.528687 58.149594 C 322.040406 58.110531 320.024781 57.99725 319.583375 57.899594 C 319.138062 57.805844 317.700562 57.118344 317.208375 57.020688 C 316.720094 56.919125 314.224 56.751156 313.684937 56.704281 C 313.145875 56.661313 311.227906 56.516781 310.739625 56.477719 C 310.247437 56.438656 308.278687 56.290219 307.790406 56.251156 C 307.298219 56.212094 305.329469 56.087094 304.841187 56.024594 C 304.352906 55.962094 302.4115 55.579281 301.923219 55.512875 C 301.431031 55.450375 299.438844 55.294125 298.946656 55.255063 C 298.450562 55.212094 296.489625 55.067563 295.997437 55.0285 C 295.50525 54.985531 293.540406 54.798031 293.048219 54.755063 C 292.559937 54.708188 290.591187 54.540219 290.102906 54.481625 C 289.610719 54.423031 287.673219 54.106625 287.181031 54.044125 C 286.688844 53.985531 284.696656 53.801938 284.204469 53.755063 C 283.712281 53.708188 281.747437 53.532406 281.25525 53.485531 C 280.766969 53.43475 278.798219 53.219906 278.309937 53.165219 C 277.81775 53.114438 275.845094 52.899594 275.360719 52.848813 C 274.88025 52.798031 273.001344 52.610531 272.509156 52.563656 C 272.016969 52.512875 269.962281 52.313656 269.466187 52.258969 C 268.966187 52.208188 267.009156 51.99725 266.516969 51.942563 C 266.024781 51.887875 264.059937 51.676938 263.56775 51.626156 C 263.079469 51.571469 261.048219 51.348813 260.622437 51.305844 C 260.19275 51.266781 258.94275 51.169125 258.450562 51.130063 C 257.962281 51.087094 255.278687 50.860531 254.724 50.80975 C 254.169312 50.755063 252.266969 50.548031 251.774781 50.493344 C 251.2865 50.43475 249.31775 50.18475 248.829469 50.130063 C 248.337281 50.071469 246.298219 49.852719 245.88025 49.80975 C 245.462281 49.770688 244.31775 49.680844 243.829469 49.637875 C 243.337281 49.594906 240.548219 49.368344 239.985719 49.313656 C 239.419312 49.255063 237.528687 49.005063 237.0365 48.950375 C 236.544312 48.891781 234.579469 48.68475 234.087281 48.630063 C 233.599 48.579281 231.571656 48.356625 231.141969 48.313656 C 230.708375 48.274594 229.388062 48.180844 228.895875 48.137875 C 228.407594 48.098813 225.794312 47.868344 225.243531 47.813656 C 224.69275 47.762875 222.7865 47.551938 222.294312 47.49725 C 221.806031 47.446469 219.837281 47.231625 219.349 47.180844 C 218.856812 47.126156 216.849 46.9035 216.399781 46.864438 C 215.950562 46.821469 214.438844 46.731625 213.946656 46.696469 C 213.458375 46.657406 211.0365 46.458188 210.501344 46.411313 C 209.970094 46.360531 208.044312 46.130063 207.556031 46.091 C 207.063844 46.055844 205.099 45.99725 204.606812 45.954281 C 204.114625 45.915219 202.102906 45.633969 201.657594 45.591 C 201.216187 45.551938 199.763062 45.485531 199.270875 45.458188 C 198.782594 45.426938 196.302125 45.262875 195.763062 45.231625 C 195.224 45.196469 193.306031 45.075375 192.813844 45.048031 C 192.325562 45.020688 190.356812 44.93475 189.868531 44.911313 C 189.376344 44.891781 187.313844 44.801938 186.919312 44.7785 C 186.524781 44.751156 185.622437 44.641781 185.13025 44.618344 C 184.638062 44.594906 181.610719 44.520688 181.020875 44.505063 C 180.434937 44.489438 178.563844 44.426938 178.075562 44.415219 C 177.583375 44.4035 175.532594 44.376156 175.126344 44.368344 C 174.720094 44.360531 173.481812 44.325375 173.200562 44.321469 C 172.923219 44.317563 172.091187 44.317563 171.759156 44.317563 C 171.427125 44.317563 169.466187 44.321469 169.231812 44.321469 C 168.993531 44.325375 169.157594 44.333188 168.9115 44.341 C 168.669312 44.348813 166.747437 44.399594 166.282594 44.415219 C 165.81775 44.426938 163.825562 44.485531 163.333375 44.505063 C 162.845094 44.524594 160.876344 44.618344 160.388062 44.641781 C 159.895875 44.661313 157.849 44.755063 157.438844 44.7785 C 157.024781 44.798031 155.934937 44.883969 155.44275 44.907406 C 154.950562 44.930844 152.110719 45.024594 151.540406 45.048031 C 150.970094 45.071469 149.083375 45.145688 148.595094 45.18475 C 148.102906 45.223813 146.138062 45.462094 145.645875 45.501156 C 145.153687 45.544125 143.169312 45.645688 142.696656 45.68475 C 142.227906 45.719906 140.470094 45.911313 139.977906 45.950375 C 139.489625 45.989438 137.309937 46.094906 136.802125 46.137875 C 136.290406 46.180844 134.345094 46.399594 133.852906 46.454281 C 133.364625 46.512875 131.395875 46.758969 130.903687 46.817563 C 130.415406 46.876156 128.438844 47.114438 127.958375 47.180844 C 127.474 47.24725 125.606813 47.563656 125.114625 47.618344 C 124.622438 47.676938 122.559938 47.805844 122.059938 47.860531 C 121.559938 47.915219 119.602906 48.200375 119.114625 48.270688 C 118.622438 48.337094 116.657594 48.610531 116.165406 48.676938 C 115.673219 48.743344 113.684938 49.008969 113.216188 49.087094 C 112.751344 49.161313 111.056031 49.516781 110.563844 49.602719 C 110.071656 49.68475 107.837281 50.005063 107.321656 50.083188 C 106.806031 50.161313 104.864625 50.458188 104.372438 50.536313 C 103.884156 50.614438 101.915406 50.958188 101.423219 51.036313 C 100.934938 51.110531 98.938844 51.364438 98.477906 51.442563 C 98.013063 51.524594 96.360719 51.915219 95.872438 52.012875 C 95.38025 52.110531 93.099 52.512875 92.579469 52.62225 C 92.059938 52.735531 90.122438 53.200375 89.634156 53.348813 C 89.141969 53.49725 87.169313 54.176938 86.684938 54.391781 C 86.196656 54.602719 84.1615 55.680844 83.794313 55.907406 C 83.423219 56.133969 82.462281 56.9035 82.263063 57.114438 C 82.059938 57.321469 81.489625 58.173031 81.376344 58.419125 C 81.266969 58.665219 80.981813 59.860531 80.934938 60.079281 C 80.888063 60.294125 80.829469 60.813656 80.81775 61.0285 C 80.806031 61.243344 80.790406 62.645688 80.790406 62.645688 " transform="matrix(1, 0, 0, -1, -28.349, 551.466)"/>
<path fill="none" stroke-width="0.99628" stroke-linecap="butt" stroke-linejoin="miter" stroke="rgb(0%, 0%, 0%)" stroke-opacity="1" stroke-dasharray="2.98883 2.98883" stroke-miterlimit="10" d="M 80.790406 62.645688 C 80.790406 62.645688 80.806031 64.051938 80.81775 64.266781 C 80.829469 64.477719 80.888063 64.99725 80.934938 65.216 C 80.981813 65.430844 81.266969 66.626156 81.376344 66.87225 C 81.489625 67.118344 82.059938 67.958188 82.263063 68.180844 C 82.466188 68.399594 83.434938 69.216 83.81775 69.536313 C 84.200563 69.856625 86.341188 71.661313 86.849 72.024594 C 87.356813 72.387875 89.4115 73.62225 89.899781 73.9035 C 90.388063 74.180844 92.231813 75.149594 92.727906 75.383969 C 93.224 75.62225 95.356813 76.524594 95.852906 76.727719 C 96.352906 76.93475 98.243531 77.6535 98.712281 77.833188 C 99.181031 78.008969 101.001344 78.676938 101.493531 78.852719 C 101.981813 79.0285 104.106813 79.774594 104.606813 79.942563 C 105.102906 80.114438 106.974 80.735531 107.477906 80.891781 C 107.977906 81.051938 110.079469 81.696469 110.626344 81.852719 C 111.173219 82.012875 113.466188 82.637875 114.063844 82.790219 C 114.6615 82.942563 117.165406 83.548031 117.81775 83.696469 C 118.470094 83.844906 121.188844 84.438656 121.895875 84.587094 C 122.602906 84.735531 125.544313 85.341 126.306031 85.489438 C 127.071656 85.637875 130.239625 86.223813 131.059937 86.368344 C 131.884156 86.508969 135.294312 87.071469 136.173219 87.208188 C 137.056031 87.344906 140.708375 87.887875 141.649781 88.016781 C 142.591187 88.145688 146.485719 88.645688 147.489625 88.766781 C 148.489625 88.883969 152.618531 89.344906 153.681031 89.454281 C 154.739625 89.563656 159.102906 89.985531 160.220094 90.083188 C 161.341187 90.180844 165.934937 90.551938 167.102906 90.637875 C 168.274781 90.723813 173.075562 91.044125 174.294312 91.114438 C 175.516969 91.18475 180.513062 91.442563 181.782594 91.493344 C 183.048219 91.548031 188.220094 91.712094 189.528687 91.743344 C 190.833375 91.770688 196.69275 91.829281 197.493531 91.837094 C 198.290406 91.844906 198.431031 91.841 199.106812 91.837094 C 199.7865 91.829281 204.403687 91.7785 205.638062 91.74725 C 206.868531 91.716 212.532594 91.532406 213.915406 91.473813 C 215.302125 91.411313 220.884156 91.098813 222.278687 91.008969 C 223.673219 90.919125 229.274781 90.508969 230.669312 90.391781 C 232.063844 90.2785 237.653687 89.766781 239.044312 89.626156 C 240.431031 89.489438 245.970094 88.891781 247.341187 88.731625 C 248.716187 88.571469 254.173219 87.891781 255.520875 87.712094 C 256.868531 87.536313 262.212281 86.782406 263.528687 86.587094 C 264.845094 86.391781 270.052125 85.583188 271.329469 85.376156 C 272.606812 85.169125 277.645875 84.317563 278.88025 84.102719 C 280.110719 83.883969 284.962281 83.001156 286.145875 82.7785 C 287.329469 82.555844 291.977906 81.657406 293.110719 81.430844 C 294.239625 81.208188 298.665406 80.305844 299.739625 80.083188 C 300.813844 79.860531 305.013062 78.966 306.028687 78.743344 C 307.048219 78.524594 311.00525 77.645688 311.966187 77.430844 C 312.923219 77.219906 316.645875 76.376156 317.548219 76.173031 C 318.446656 75.969906 321.931031 75.169125 322.774781 74.973813 C 323.614625 74.7785 326.864625 74.020688 327.649781 73.841 C 328.431031 73.657406 331.450562 72.958188 332.181031 72.790219 C 332.907594 72.618344 335.708375 71.966 336.38025 71.80975 C 337.052125 71.6535 339.638062 71.051938 340.259156 70.907406 C 340.88025 70.762875 343.263062 70.204281 343.833375 70.071469 C 344.403687 69.938656 346.595094 69.430844 347.118531 69.30975 C 347.641969 69.18475 349.645875 68.719906 350.126344 68.606625 C 350.606812 68.49725 352.438844 68.071469 352.876344 67.969906 C 353.31775 67.868344 354.989625 67.477719 355.388062 67.387875 C 355.790406 67.294125 357.309937 66.938656 357.673219 66.856625 C 358.0365 66.770688 359.427125 66.446469 359.759156 66.37225 C 360.087281 66.294125 361.345094 66.008969 361.645875 65.942563 C 361.946656 65.876156 363.087281 65.62225 363.360719 65.563656 C 363.634156 65.501156 364.669312 65.270688 364.915406 65.216 C 365.1615 65.157406 366.095094 64.946469 366.31775 64.895688 C 366.540406 64.841 367.384156 64.641781 367.583375 64.594906 C 367.7865 64.544125 368.548219 64.360531 368.727906 64.317563 C 368.9115 64.274594 369.599 64.110531 369.763062 64.067563 C 369.923219 64.0285 370.544312 63.880063 370.69275 63.841 C 370.837281 63.805844 371.395875 63.669125 371.528687 63.637875 C 371.6615 63.606625 372.157594 63.481625 372.278687 63.454281 C 372.395875 63.423031 372.852906 63.313656 372.958375 63.286313 C 373.06775 63.262875 373.474 63.161313 373.56775 63.137875 C 373.665406 63.114438 374.028687 63.0285 374.114625 63.005063 C 374.200562 62.985531 374.532594 62.907406 374.606812 62.887875 C 374.684937 62.868344 374.985719 62.794125 375.052125 62.7785 C 375.114625 62.762875 375.329469 62.712094 375.372437 62.700375 C 375.419312 62.688656 375.595094 62.645688 375.595094 62.645688 " transform="matrix(1, 0, 0, -1, -28.349, 551.466)"/>
<path fill="none" stroke-width="0.3985" stroke-linecap="butt" stroke-linejoin="miter" stroke="rgb(69.999695%, 69.999695%, 69.999695%)" stroke-opacity="1" stroke-miterlimit="10" d="M 114.806031 83.239438 L 118.774781 88.341 " transform="matrix(1, 0, 0, -1, -28.349, 551.466)"/>
<path fill="none" stroke-width="0.3985" stroke-linecap="butt" stroke-linejoin="miter" stroke="rgb(69.999695%, 69.999695%, 69.999695%)" stroke-opacity="1" stroke-miterlimit="10" d="M 148.821656 88.49725 L 152.790406 93.602719 " transform="matrix(1, 0, 0, -1, -28.349, 551.466)"/>
<path fill="none" stroke-width="0.3985" stroke-linecap="butt" stroke-linejoin="miter" stroke="rgb(69.999695%, 69.999695%, 69.999695%)" stroke-opacity="1" stroke-miterlimit="10" d="M 182.837281 91.469906 L 186.806031 96.571469 " transform="matrix(1, 0, 0, -1, -28.349, 551.466)"/>
<path fill="none" stroke-width="0.3985" stroke-linecap="butt" stroke-linejoin="miter" stroke="rgb(69.999695%, 69.999695%, 69.999695%)" stroke-opacity="1" stroke-miterlimit="10" d="M 216.852906 90.450375 L 220.821656 95.551938 " transform="matrix(1, 0, 0, -1, -28.349, 551.466)"/>
<path fill="none" stroke-width="0.3985" stroke-linecap="butt" stroke-linejoin="miter" stroke="rgb(69.999695%, 69.999695%, 69.999695%)" stroke-opacity="1" stroke-miterlimit="10" d="M 250.868531 87.567563 L 254.837281 92.673031 " transform="matrix(1, 0, 0, -1, -28.349, 551.466)"/>
<path fill="none" stroke-width="0.3985" stroke-linecap="butt" stroke-linejoin="miter" stroke="rgb(69.999695%, 69.999695%, 69.999695%)" stroke-opacity="1" stroke-miterlimit="10" d="M 284.884156 83.395688 L 288.852906 88.49725 " transform="matrix(1, 0, 0, -1, -28.349, 551.466)"/>
<path fill="none" stroke-width="0.3985" stroke-linecap="butt" stroke-linejoin="miter" stroke="rgb(69.999695%, 69.999695%, 69.999695%)" stroke-opacity="1" stroke-miterlimit="10" d="M 318.899781 78.544125 L 322.868531 83.645688 " transform="matrix(1, 0, 0, -1, -28.349, 551.466)"/>
<path fill="none" stroke-width="0.3985" stroke-linecap="butt" stroke-linejoin="miter" stroke="rgb(69.999695%, 69.999695%, 69.999695%)" stroke-opacity="1" stroke-miterlimit="10" d="M 352.919312 68.99725 L 356.888062 74.098813 " transform="matrix(1, 0, 0, -1, -28.349, 551.466)"/>
<path fill="none" stroke-width="0.3985" stroke-linecap="butt" stroke-linejoin="miter" stroke="rgb(69.999695%, 69.999695%, 69.999695%)" stroke-opacity="1" stroke-miterlimit="10" d="M 114.806031 46.704281 L 118.774781 41.602719 " transform="matrix(1, 0, 0, -1, -28.349, 551.466)"/>
<path fill="none" stroke-width="0.3985" stroke-linecap="butt" stroke-linejoin="miter" stroke="rgb(69.999695%, 69.999695%, 69.999695%)" stroke-opacity="1" stroke-miterlimit="10" d="M 148.821656 44.641781 L 152.790406 39.540219 " transform="matrix(1, 0, 0, -1, -28.349, 551.466)"/>
<path fill="none" stroke-width="0.3985" stroke-linecap="butt" stroke-linejoin="miter" stroke="rgb(69.999695%, 69.999695%, 69.999695%)" stroke-opacity="1" stroke-miterlimit="10" d="M 182.837281 44.2785 L 186.806031 39.176938 " transform="matrix(1, 0, 0, -1, -28.349, 551.466)"/>
<path fill="none" stroke-width="0.3985" stroke-linecap="butt" stroke-linejoin="miter" stroke="rgb(69.999695%, 69.999695%, 69.999695%)" stroke-opacity="1" stroke-miterlimit="10" d="M 216.852906 46.091 L 220.821656 40.989438 " transform="matrix(1, 0, 0, -1, -28.349, 551.466)"/>
<path fill="none" stroke-width="0.3985" stroke-linecap="butt" stroke-linejoin="miter" stroke="rgb(69.999695%, 69.999695%, 69.999695%)" stroke-opacity="1" stroke-miterlimit="10" d="M 250.868531 49.219906 L 254.837281 44.118344 " transform="matrix(1, 0, 0, -1, -28.349, 551.466)"/>
<path fill="none" stroke-width="0.3985" stroke-linecap="butt" stroke-linejoin="miter" stroke="rgb(69.999695%, 69.999695%, 69.999695%)" stroke-opacity="1" stroke-miterlimit="10" d="M 284.884156 52.395688 L 288.852906 47.294125 " transform="matrix(1, 0, 0, -1, -28.349, 551.466)"/>
<path fill="none" stroke-width="0.3985" stroke-linecap="butt" stroke-linejoin="miter" stroke="rgb(69.999695%, 69.999695%, 69.999695%)" stroke-opacity="1" stroke-miterlimit="10" d="M 318.899781 55.661313 L 322.868531 50.55975 " transform="matrix(1, 0, 0, -1, -28.349, 551.466)"/>
<path fill="none" stroke-width="0.3985" stroke-linecap="butt" stroke-linejoin="miter" stroke="rgb(69.999695%, 69.999695%, 69.999695%)" stroke-opacity="1" stroke-miterlimit="10" d="M 352.919312 60.380063 L 356.888062 55.2785 " transform="matrix(1, 0, 0, -1, -28.349, 551.466)"/>
<path fill-rule="nonzero" fill="rgb(0%, 0%, 0%)" fill-opacity="1" d="M 54.929688 488.820312 C 54.929688 487.445312 53.816406 486.328125 52.441406 486.328125 C 51.0625 486.328125 49.949219 487.445312 49.949219 488.820312 C 49.949219 490.195312 51.0625 491.308594 52.441406 491.308594 C 53.816406 491.308594 54.929688 490.195312 54.929688 488.820312 Z M 54.929688 488.820312 "/>
<g fill="rgb(0%, 0%, 0%)" fill-opacity="1">
<use xlink:href="#glyph-5-0" x="38.722" y="491.203"/>
<use xlink:href="#glyph-5-1" x="43.648292" y="491.203"/>
</g>
<path fill-rule="nonzero" fill="rgb(0%, 0%, 0%)" fill-opacity="1" d="M 349.738281 488.820312 C 349.738281 487.445312 348.621094 486.328125 347.246094 486.328125 C 345.871094 486.328125 344.753906 487.445312 344.753906 488.820312 C 344.753906 490.195312 345.871094 491.308594 347.246094 491.308594 C 348.621094 491.308594 349.738281 490.195312 349.738281 488.820312 Z M 349.738281 488.820312 "/>
<g fill="rgb(0%, 0%, 0%)" fill-opacity="1">
<use xlink:href="#glyph-5-2" x="355.212" y="491.203"/>
<use xlink:href="#glyph-5-1" x="360.899134" y="491.203"/>
</g>
<g fill="rgb(0%, 0%, 0%)" fill-opacity="1">
<use xlink:href="#glyph-0-7" x="152.953" y="454.778"/>
<use xlink:href="#glyph-0-8" x="161.24154" y="454.778"/>
<use xlink:href="#glyph-0-9" x="166.546959" y="454.778"/>
<use xlink:href="#glyph-0-10" x="170.083307" y="454.778"/>
<use xlink:href="#glyph-0-2" x="174.268823" y="454.778"/>
<use xlink:href="#glyph-0-11" x="177.216078" y="454.778"/>
<use xlink:href="#glyph-0-12" x="180.163334" y="454.778"/>
</g>
<g fill="rgb(0%, 0%, 0%)" fill-opacity="1">
<use xlink:href="#glyph-0-13" x="189.590607" y="454.778"/>
</g>
<g fill="rgb(0%, 0%, 0%)" fill-opacity="1">
<use xlink:href="#glyph-0-14" x="196.966368" y="454.778"/>
<use xlink:href="#glyph-0-2" x="202.123841" y="454.778"/>
<use xlink:href="#glyph-0-2" x="205.071097" y="454.778"/>
</g>
<g fill="rgb(0%, 0%, 0%)" fill-opacity="1">
<use xlink:href="#glyph-0-15" x="211.551114" y="454.778"/>
<use xlink:href="#glyph-0-14" x="215.677451" y="454.778"/>
<use xlink:href="#glyph-0-11" x="220.834924" y="454.778"/>
<use xlink:href="#glyph-0-16" x="223.78218" y="454.778"/>
<use xlink:href="#glyph-0-17" x="228.15868" y="454.778"/>
<use xlink:href="#glyph-0-8" x="231.40093" y="454.778"/>
<use xlink:href="#glyph-0-11" x="236.706349" y="454.778"/>
<use xlink:href="#glyph-0-2" x="239.653605" y="454.778"/>
<use xlink:href="#glyph-0-18" x="242.60086" y="454.778"/>
</g>
<path fill="none" stroke-width="0.3985" stroke-linecap="butt" stroke-linejoin="miter" stroke="rgb(0%, 0%, 0%)" stroke-opacity="1" stroke-miterlimit="10" d="M 83.852906 34.298031 L 372.532594 34.298031 " transform="matrix(1, 0, 0, -1, -28.349, 551.466)"/>
<path fill-rule="nonzero" fill="rgb(0%, 0%, 0%)" fill-opacity="1" stroke-width="0.3985" stroke-linecap="butt" stroke-linejoin="miter" stroke="rgb(0%, 0%, 0%)" stroke-opacity="1" stroke-miterlimit="10" d="M 4.213847 0.00178875 L 0.643535 1.345539 L 1.819316 0.00178875 L 0.643535 -1.345868 Z M 4.213847 0.00178875 " transform="matrix(-1, 0, 0, 1, 57.22166, 517.16618)"/>
<path fill-rule="nonzero" fill="rgb(0%, 0%, 0%)" fill-opacity="1" stroke-width="0.3985" stroke-linecap="butt" stroke-linejoin="miter" stroke="rgb(0%, 0%, 0%)" stroke-opacity="1" stroke-miterlimit="10" d="M 4.215578 -0.00178875 L 0.645265 1.345868 L 1.81714 -0.00178875 L 0.645265 -1.345539 Z M 4.215578 -0.00178875 " transform="matrix(1, 0, 0, -1, 342.46411, 517.16618)"/>
<g fill="rgb(0%, 0%, 0%)" fill-opacity="1">
<use xlink:href="#glyph-2-1" x="182.409" y="526.813"/>
</g>
<g fill="rgb(0%, 0%, 0%)" fill-opacity="1">
<use xlink:href="#glyph-1-8" x="192.187756" y="526.813"/>
</g>
<g fill="rgb(0%, 0%, 0%)" fill-opacity="1">
<use xlink:href="#glyph-1-9" x="201.91092" y="526.813"/>
</g>
<g fill="rgb(0%, 0%, 0%)" fill-opacity="1">
<use xlink:href="#glyph-1-10" x="209.594228" y="526.813"/>
</g>
<path fill="none" stroke-width="0.3985" stroke-linecap="butt" stroke-linejoin="miter" stroke="rgb(75%, 75%, 75%)" stroke-opacity="1" stroke-dasharray="2.98883 2.98883" stroke-miterlimit="10" d="M 80.790406 61.512875 L 80.790406 32.032406 " transform="matrix(1, 0, 0, -1, -28.349, 551.466)"/>
<path fill="none" stroke-width="0.3985" stroke-linecap="butt" stroke-linejoin="miter" stroke="rgb(75%, 75%, 75%)" stroke-opacity="1" stroke-dasharray="2.98883 2.98883" stroke-miterlimit="10" d="M 375.595094 61.512875 L 375.595094 32.032406 " transform="matrix(1, 0, 0, -1, -28.349, 551.466)"/>
</svg>
